<svg width="80" height="90" viewBox="0 0 80 90" fill="none" xmlns="http://www.w3.org/2000/svg">
<rect width="80" height="90" rx="8" fill="#0166FF"/>
<path d="M56.4557 24.6229C54.7081 20.4869 51.9523 17.0782 48.5504 14.8448C45.1486 12.6115 41.2598 11.6579 37.3951 12.1093C33.5304 12.5608 29.8707 14.3962 26.8968 17.3744C23.9229 20.3526 21.774 24.3342 20.7324 28.7961C17.4846 28.9621 14.425 30.6602 12.2269 33.5167C10.0288 36.3733 8.87206 40.1544 9.01125 44.0282C9.15045 47.9019 10.5741 51.5511 12.9691 54.1729C15.3641 56.7947 18.5342 58.1743 21.7821 58.0083V53.8351C19.4622 53.7798 17.2557 52.6275 15.6481 50.6318C14.0405 48.6361 13.1635 45.9605 13.2099 43.1935C13.2563 40.4265 14.2223 37.7949 15.8955 35.8774C17.5688 33.96 19.8121 32.9139 22.1319 32.9692H23.5665L23.8464 31.3C24.4705 27.6357 25.9976 24.2771 28.232 21.6543C30.4664 19.0315 33.3063 17.264 36.3881 16.5782C39.4698 15.8924 42.6531 16.3194 45.5301 17.8047C48.4071 19.2899 50.8469 21.7658 52.5369 24.915C49.3354 25.6035 46.435 27.6007 44.3342 30.5633C42.2334 33.5259 41.0636 37.2688 41.0257 41.1487H44.5246C44.5263 39.2713 44.8819 37.4184 45.5652 35.7272C46.2485 34.0359 47.2419 32.5496 48.4719 31.3783C49.702 30.2069 51.1371 29.3805 52.6712 28.9602C54.2052 28.5399 55.7989 28.5365 57.3342 28.9502C58.8695 29.3639 60.3072 30.1842 61.5407 31.3502C62.7743 32.5163 63.7722 33.9983 64.4606 35.6866C65.149 37.3749 65.5102 39.2262 65.5176 41.1036C65.5249 42.9809 65.1782 44.8362 64.503 46.5321L67.687 48.2848C68.6303 45.8739 69.0768 43.2289 68.9892 40.5705C68.9017 37.912 68.2826 35.317 67.1837 33.0017C66.0847 30.6865 64.5377 28.7181 62.6716 27.2606C60.8054 25.8031 58.6743 24.8987 56.4557 24.6229Z" fill="white"/>
<path d="M30.7612 53.0291L25.5098 63.8691L28.5392 65.957L33.7907 55.1169L30.7612 53.0291Z" fill="white"/>
<path d="M23.7568 67.4842L20.2559 74.7109L23.2853 76.7988L26.7863 69.5721L23.7568 67.4842Z" fill="white"/>
<path d="M41.2622 55.2771L36.0107 66.1172L39.0402 68.205L44.2917 57.365L41.2622 55.2771Z" fill="white"/>
<path d="M34.2578 69.7323L30.7568 76.959L33.7863 79.0468L37.2873 71.8201L34.2578 69.7323Z" fill="white"/>
<path d="M62.2602 55.2947L57.0088 66.1348L60.0383 68.2226L65.2897 57.3826L62.2602 55.2947Z" fill="white"/>
<path d="M55.2549 69.7499L51.7539 76.9766L54.7834 79.0644L58.2844 71.8377L55.2549 69.7499Z" fill="white"/>
<path d="M51.7622 53.0486L46.5107 63.8887L49.5402 65.9765L54.7917 55.1365L51.7622 53.0486Z" fill="white"/>
<path d="M44.7558 67.5057L41.2549 74.7324L44.2844 76.8203L47.7853 69.5936L44.7558 67.5057Z" fill="white"/>
</svg>
