<svg width="60" height="55" viewBox="0 0 60 55" fill="none" xmlns="http://www.w3.org/2000/svg">
<path d="M47.4557 12.6229C45.7081 8.48689 42.9523 5.07823 39.5504 2.84485C36.1486 0.611465 32.2598 -0.342147 28.3951 0.109322C24.5304 0.560791 20.8707 2.39622 17.8968 5.37441C14.9229 8.35261 12.774 12.3342 11.7324 16.7961C8.48456 16.9621 5.42505 18.6602 3.22691 21.5167C1.02876 24.3733 -0.12794 28.1544 0.0112528 32.0282C0.150446 35.9019 1.57413 39.5511 3.96912 42.1729C6.36411 44.7947 9.53422 46.1743 12.7821 46.0083V41.8351C10.4622 41.7798 8.25574 40.6275 6.64814 38.6318C5.04055 36.6362 4.16348 33.9605 4.20987 31.1935C4.25627 28.4265 5.22234 25.7949 6.89555 23.8774C8.56876 21.96 10.8121 20.9139 13.1319 20.9692H14.5665L14.8464 19.3C15.4705 15.6357 16.9976 12.2771 19.232 9.65431C21.4664 7.03154 24.3063 5.26405 27.3881 4.57821C30.4698 3.89238 33.6531 4.31944 36.5301 5.80469C39.4071 7.28994 41.8469 9.76576 43.5369 12.915C40.3354 13.6035 37.435 15.6007 35.3342 18.5633C33.2334 21.5259 32.0636 25.2688 32.0257 29.1487H35.5246C35.5263 27.2713 35.8819 25.4184 36.5652 23.7272C37.2485 22.036 38.2419 20.5496 39.4719 19.3783C40.702 18.2069 42.1371 17.3805 43.6712 16.9602C45.2052 16.5399 46.7989 16.5365 48.3342 16.9502C49.8695 17.3639 51.3072 18.1842 52.5407 19.3502C53.7743 20.5163 54.7722 21.9983 55.4606 23.6866C56.149 25.3749 56.5102 27.2262 56.5176 29.1036C56.5249 30.9809 56.1782 32.8362 55.503 34.5321L58.687 36.2848C59.6303 33.8739 60.0768 31.229 59.9892 28.5705C59.9017 25.912 59.2826 23.317 58.1837 21.0017C57.0847 18.6865 55.5377 16.7181 53.6716 15.2606C51.8054 13.8031 49.6743 12.8987 47.4557 12.6229Z" fill="#0166FF"/>
<path d="M27.1304 41.2244L21.8789 52.0645L24.9084 54.1523L30.1598 43.3123L27.1304 41.2244Z" fill="#0166FF"/>
<path d="M38.8862 41.2244L33.6348 52.0645L36.6642 54.1523L41.9157 43.3123L38.8862 41.2244Z" fill="#0166FF"/>
</svg>
