<svg width="80" height="90" viewBox="0 0 80 90" fill="none" xmlns="http://www.w3.org/2000/svg">
<rect width="80" height="90" rx="8" fill="#0166FF"/>
<path d="M57.0564 30.2873C55.2867 25.9336 52.496 22.3455 49.0511 19.9946C45.6061 17.6436 41.6681 16.6398 37.7545 17.1151C33.841 17.5903 30.1349 19.5223 27.1233 22.6573C24.1118 25.7922 21.9357 29.9834 20.8809 34.6801C17.592 34.8548 14.4937 36.6423 12.2678 39.6492C10.0418 42.6561 8.87044 46.6362 9.0114 50.7139C9.15235 54.7915 10.5941 58.6328 13.0194 61.3925C15.4447 64.1523 18.6549 65.6045 21.9439 65.4298V61.037C19.5946 60.9787 17.3602 59.7658 15.7323 57.6651C14.1044 55.5644 13.2162 52.7479 13.2632 49.8353C13.3101 46.9227 14.2884 44.1525 15.9828 42.1341C17.6772 40.1158 19.9489 39.0146 22.2982 39.0729H23.7509L24.0343 37.3158C24.6664 33.4586 26.2128 29.9232 28.4754 27.1624C30.7381 24.4016 33.614 22.5411 36.7348 21.8192C39.8555 21.0972 43.0791 21.5468 45.9925 23.1102C48.9059 24.6736 51.3766 27.2797 53.0881 30.5948C49.846 31.3195 46.9088 33.4218 44.7815 36.5403C42.6541 39.6588 41.4694 43.5988 41.4311 47.6828H44.9743C44.976 45.7066 45.3361 43.7563 46.028 41.976C46.72 40.1957 47.726 38.6312 48.9716 37.3982C50.2172 36.1652 51.6705 35.2953 53.224 34.8529C54.7775 34.4104 56.3913 34.4068 57.946 34.8423C59.5008 35.2778 60.9566 36.1412 62.2058 37.3687C63.455 38.5961 64.4655 40.1561 65.1626 41.9333C65.8597 43.7104 66.2255 45.6592 66.233 47.6353C66.2404 49.6115 65.8893 51.5644 65.2056 53.3495L68.4298 55.1945C69.3851 52.6567 69.8372 49.8726 69.7486 47.0742C69.6599 44.2758 69.033 41.5442 67.9202 39.1071C66.8073 36.67 65.2407 34.598 63.351 33.0638C61.4612 31.5296 59.3031 30.5776 57.0564 30.2873Z" fill="white"/>
<path d="M36.4742 60.3941L31.1562 71.8047L34.2241 74.0024L39.542 62.5919L36.4742 60.3941Z" fill="white"/>
<path d="M48.3785 60.3941L43.0605 71.8047L46.1284 74.0024L51.4463 62.5919L48.3785 60.3941Z" fill="white"/>
</svg>
