<svg width="80" height="90" viewBox="0 0 80 90" fill="none" xmlns="http://www.w3.org/2000/svg">
<rect width="80" height="90" rx="8" fill="#0166FF"/>
<path d="M56.4557 20.6229C54.7081 16.4869 51.9523 13.0782 48.5504 10.8448C45.1486 8.61147 41.2598 7.65785 37.3951 8.10932C33.5304 8.56079 29.8707 10.3962 26.8968 13.3744C23.9229 16.3526 21.774 20.3342 20.7324 24.7961C17.4846 24.9621 14.425 26.6602 12.2269 29.5167C10.0288 32.3733 8.87206 36.1544 9.01125 40.0282C9.15045 43.9019 10.5741 47.5511 12.9691 50.1729C15.3641 52.7947 18.5342 54.1743 21.7821 54.0083V49.8351C19.4622 49.7798 17.2557 48.6275 15.6481 46.6318C14.0405 44.6361 13.1635 41.9605 13.2099 39.1935C13.2563 36.4265 14.2223 33.7949 15.8955 31.8774C17.5688 29.96 19.8121 28.9139 22.1319 28.9692H23.5665L23.8464 27.3C24.4705 23.6357 25.9976 20.2771 28.232 17.6543C30.4664 15.0315 33.3063 13.264 36.3881 12.5782C39.4698 11.8924 42.6531 12.3194 45.5301 13.8047C48.4071 15.2899 50.8469 17.7658 52.5369 20.915C49.3354 21.6035 46.435 23.6007 44.3342 26.5633C42.2334 29.5259 41.0636 33.2688 41.0257 37.1487H44.5246C44.5263 35.2713 44.8819 33.4184 45.5652 31.7272C46.2485 30.0359 47.2419 28.5496 48.4719 27.3783C49.702 26.2069 51.1371 25.3805 52.6712 24.9602C54.2052 24.5399 55.7989 24.5365 57.3342 24.9502C58.8695 25.3639 60.3072 26.1842 61.5407 27.3502C62.7743 28.5163 63.7722 29.9983 64.4606 31.6866C65.149 33.3749 65.5102 35.2262 65.5176 37.1036C65.5249 38.9809 65.1782 40.8362 64.503 42.5321L67.687 44.2848C68.6303 41.8739 69.0768 39.2289 68.9892 36.5705C68.9017 33.912 68.2826 31.317 67.1837 29.0017C66.0847 26.6865 64.5377 24.7181 62.6716 23.2606C60.8054 21.8031 58.6743 20.8987 56.4557 20.6229Z" fill="white"/>
<path d="M30.7612 49.0291L25.5098 59.8691L28.5392 61.957L33.7907 51.1169L30.7612 49.0291Z" fill="white"/>
<path d="M23.7568 63.4842L20.2559 70.7109L23.2853 72.7988L26.7863 65.5721L23.7568 63.4842Z" fill="white"/>
<path d="M41.2602 49.0408L36.0088 59.8809L39.0383 61.9687L44.2897 51.1287L41.2602 49.0408Z" fill="white"/>
<path d="M34.2558 63.496L30.7549 70.7227L33.7844 72.8105L37.2853 65.5838L34.2558 63.496Z" fill="white"/>
<path d="M29.0107 74.3436L25.5098 81.5703L28.5392 83.6582L32.0402 76.4315L29.0107 74.3436Z" fill="white"/>
<path d="M62.2612 49.0584L57.0098 59.8984L60.0392 61.9863L65.2907 51.1462L62.2612 49.0584Z" fill="white"/>
<path d="M55.2549 63.5174L51.7539 70.7441L54.7834 72.832L58.2844 65.6053L55.2549 63.5174Z" fill="white"/>
<path d="M50.0098 74.3651L46.5088 81.5918L49.5383 83.6796L53.0392 76.453L50.0098 74.3651Z" fill="white"/>
<path d="M51.7622 49.0486L46.5107 59.8887L49.5402 61.9765L54.7917 51.1365L51.7622 49.0486Z" fill="white"/>
<path d="M44.7558 63.5057L41.2549 70.7324L44.2844 72.8203L47.7853 65.5936L44.7558 63.5057Z" fill="white"/>
</svg>
