<svg width="80" height="90" viewBox="0 0 80 90" fill="none" xmlns="http://www.w3.org/2000/svg">
<rect width="80" height="90" rx="8" fill="#0166FF"/>
<path d="M57.4557 30.6229C55.7081 26.4869 52.9523 23.0782 49.5504 20.8448C46.1486 18.6115 42.2598 17.6579 38.3951 18.1093C34.5304 18.5608 30.8707 20.3962 27.8968 23.3744C24.9229 26.3526 22.774 30.3342 21.7324 34.7961C18.4846 34.9621 15.425 36.6602 13.2269 39.5167C11.0288 42.3733 9.87206 46.1544 10.0113 50.0282C10.1504 53.9019 11.5741 57.5511 13.9691 60.1729C16.3641 62.7947 19.5342 64.1743 22.7821 64.0083V59.8351C20.4622 59.7798 18.2557 58.6275 16.6481 56.6318C15.0405 54.6361 14.1635 51.9605 14.2099 49.1935C14.2563 46.4265 15.2223 43.7949 16.8955 41.8774C18.5688 39.96 20.8121 38.9139 23.1319 38.9692H24.5665L24.8464 37.3C25.4705 33.6357 26.9976 30.2771 29.232 27.6543C31.4664 25.0315 34.3063 23.264 37.3881 22.5782C40.4698 21.8924 43.6531 22.3194 46.5301 23.8047C49.4071 25.2899 51.8469 27.7658 53.5369 30.915C50.3354 31.6035 47.435 33.6007 45.3342 36.5633C43.2334 39.5259 42.0636 43.2688 42.0257 47.1487H45.5246C45.5263 45.2713 45.8819 43.4184 46.5652 41.7272C47.2485 40.0359 48.2419 38.5496 49.4719 37.3783C50.702 36.2069 52.1371 35.3805 53.6712 34.9602C55.2052 34.5399 56.7989 34.5365 58.3342 34.9502C59.8695 35.3639 61.3072 36.1842 62.5407 37.3502C63.7743 38.5163 64.7722 39.9983 65.4606 41.6866C66.149 43.3749 66.5102 45.2262 66.5176 47.1036C66.5249 48.9809 66.1782 50.8362 65.503 52.5321L68.687 54.2848C69.6303 51.8739 70.0768 49.2289 69.9892 46.5705C69.9017 43.912 69.2826 41.317 68.1837 39.0017C67.0847 36.6865 65.5377 34.7181 63.6716 33.2606C61.8054 31.8031 59.6743 30.8987 57.4557 30.6229Z" fill="white"/>
<path d="M31.7622 61.2615L26.5107 72.1016L29.5402 74.1894L34.7917 63.3494L31.7622 61.2615Z" fill="white"/>
<path d="M42.2622 59.0408L37.0107 69.8809L40.0402 71.9687L45.2917 61.1287L42.2622 59.0408Z" fill="white"/>
<path d="M63.2602 59.0584L58.0088 69.8984L61.0383 71.9863L66.2897 61.1462L63.2602 59.0584Z" fill="white"/>
<path d="M52.7602 61.285L47.5088 72.125L50.5383 74.2128L55.7897 63.3728L52.7602 61.285Z" fill="white"/>
</svg>
