<svg width="80" height="90" viewBox="0 0 80 90" fill="none" xmlns="http://www.w3.org/2000/svg">
<rect width="80" height="90" rx="8" fill="#0166FF"/>
<path d="M55.4557 26.6229C53.7081 22.4869 50.9523 19.0782 47.5504 16.8448C44.1486 14.6115 40.2598 13.6579 36.3951 14.1093C32.5304 14.5608 28.8707 16.3962 25.8968 19.3744C22.9229 22.3526 20.774 26.3342 19.7324 30.7961C16.4846 30.9621 13.425 32.6602 11.2269 35.5167C9.02876 38.3733 7.87206 42.1544 8.01125 46.0282C8.15045 49.9019 9.57413 53.5511 11.9691 56.1729C14.3641 58.7947 17.5342 60.1743 20.7821 60.0083V55.8351C18.4622 55.7798 16.2557 54.6275 14.6481 52.6318C13.0405 50.6361 12.1635 47.9605 12.2099 45.1935C12.2563 42.4265 13.2223 39.7949 14.8955 37.8774C16.5688 35.96 18.8121 34.9139 21.1319 34.9692H22.5665L22.8464 33.3C23.4705 29.6357 24.9976 26.2771 27.232 23.6543C29.4664 21.0315 32.3063 19.264 35.3881 18.5782C38.4698 17.8924 41.6531 18.3194 44.5301 19.8047C47.4071 21.2899 49.8469 23.7658 51.5369 26.915C48.3354 27.6035 45.435 29.6007 43.3342 32.5633C41.2334 35.5259 40.0636 39.2688 40.0257 43.1487H43.5246C43.5263 41.2713 43.8819 39.4184 44.5652 37.7272C45.2485 36.0359 46.2419 34.5496 47.4719 33.3783C48.702 32.2069 50.1371 31.3805 51.6712 30.9602C53.2052 30.5399 54.7989 30.5365 56.3342 30.9502C57.8695 31.3639 59.3072 32.1842 60.5407 33.3502C61.7743 34.5163 62.7722 35.9983 63.4606 37.6866C64.149 39.3749 64.5102 41.2262 64.5176 43.1036C64.5249 44.9809 64.1782 46.8362 63.503 48.5321L66.687 50.2848C67.6303 47.8739 68.0768 45.2289 67.9892 42.5705C67.9017 39.912 67.2826 37.317 66.1837 35.0017C65.0847 32.6865 63.5377 30.7181 61.6716 29.2606C59.8054 27.8031 57.6743 26.8987 55.4557 26.6229Z" fill="white"/>
<path d="M29.7612 55.0291L24.5098 65.8691L27.5392 67.957L32.7907 57.1169L29.7612 55.0291Z" fill="white"/>
<path d="M40.2602 55.0408L35.0088 65.8809L38.0383 67.9687L43.2897 57.1287L40.2602 55.0408Z" fill="white"/>
<path d="M33.2558 69.496L29.7549 76.7227L32.7844 78.8105L36.2853 71.5838L33.2558 69.496Z" fill="white"/>
<path d="M61.2612 55.0584L56.0098 65.8984L59.0392 67.9863L64.2907 57.1462L61.2612 55.0584Z" fill="white"/>
<path d="M54.2549 69.5174L50.7539 76.7441L53.7834 78.832L57.2844 71.6053L54.2549 69.5174Z" fill="white"/>
<path d="M50.7622 55.0486L45.5107 65.8887L48.5402 67.9765L53.7917 57.1365L50.7622 55.0486Z" fill="white"/>
</svg>
