<svg width="137" height="42" viewBox="0 0 137 42" fill="none" xmlns="http://www.w3.org/2000/svg">
<rect x="7" y="14" width="40" height="8" fill="#EBCB62"/>
<rect x="47" y="14" width="40" height="8" fill="#E59D59"/>
<rect x="87" y="14" width="40" height="8" fill="#DA615C"/>
<path d="M7.75284 8.12784C7.2642 8.12595 6.84375 8.00568 6.49148 7.76705C6.1411 7.52841 5.87121 7.18277 5.68182 6.73011C5.49432 6.27746 5.40152 5.73295 5.40341 5.09659C5.40341 4.46212 5.49716 3.9214 5.68466 3.47443C5.87405 3.02746 6.14394 2.6875 6.49432 2.45455C6.84659 2.2197 7.2661 2.10227 7.75284 2.10227C8.23958 2.10227 8.65814 2.2197 9.00852 2.45455C9.3608 2.68939 9.63163 3.0303 9.82102 3.47727C10.0104 3.92235 10.1042 4.46212 10.1023 5.09659C10.1023 5.73485 10.0076 6.2803 9.81818 6.73295C9.63068 7.18561 9.36174 7.53125 9.01136 7.76989C8.66098 8.00852 8.24148 8.12784 7.75284 8.12784ZM7.75284 7.10795C8.08617 7.10795 8.35227 6.94034 8.55114 6.60511C8.75 6.26989 8.84848 5.76705 8.84659 5.09659C8.84659 4.6553 8.80114 4.28788 8.71023 3.99432C8.62121 3.70076 8.49432 3.48011 8.32955 3.33239C8.16667 3.18466 7.97443 3.1108 7.75284 3.1108C7.4214 3.1108 7.15625 3.27652 6.95739 3.60795C6.75852 3.93939 6.65814 4.43561 6.65625 5.09659C6.65625 5.54356 6.70076 5.91667 6.78977 6.21591C6.88068 6.51326 7.00852 6.73674 7.1733 6.88636C7.33807 7.03409 7.53125 7.10795 7.75284 7.10795Z" fill="#3C3C3D"/>
<path d="M0.505682 34V28.1818H1.7358V32.9858H4.23011V34H0.505682ZM6.99361 34.0852C6.55232 34.0852 6.17069 33.9915 5.84872 33.804C5.52865 33.6146 5.28149 33.3513 5.10724 33.0142C4.933 32.6752 4.84588 32.2822 4.84588 31.8352C4.84588 31.3845 4.933 30.9905 5.10724 30.6534C5.28149 30.3144 5.52865 30.0511 5.84872 29.8636C6.17069 29.6742 6.55232 29.5795 6.99361 29.5795C7.4349 29.5795 7.81558 29.6742 8.13565 29.8636C8.45762 30.0511 8.70573 30.3144 8.87997 30.6534C9.05421 30.9905 9.14134 31.3845 9.14134 31.8352C9.14134 32.2822 9.05421 32.6752 8.87997 33.0142C8.70573 33.3513 8.45762 33.6146 8.13565 33.804C7.81558 33.9915 7.4349 34.0852 6.99361 34.0852ZM6.99929 33.1477C7.20005 33.1477 7.36766 33.0909 7.50213 32.9773C7.6366 32.8617 7.73793 32.7045 7.80611 32.5057C7.87618 32.3068 7.91122 32.0805 7.91122 31.8267C7.91122 31.5729 7.87618 31.3466 7.80611 31.1477C7.73793 30.9489 7.6366 30.7917 7.50213 30.6761C7.36766 30.5606 7.20005 30.5028 6.99929 30.5028C6.79664 30.5028 6.62618 30.5606 6.48793 30.6761C6.35156 30.7917 6.24834 30.9489 6.17827 31.1477C6.11009 31.3466 6.07599 31.5729 6.07599 31.8267C6.07599 32.0805 6.11009 32.3068 6.17827 32.5057C6.24834 32.7045 6.35156 32.8617 6.48793 32.9773C6.62618 33.0909 6.79664 33.1477 6.99929 33.1477ZM10.6797 34L9.49219 29.6364H10.7166L11.3928 32.5682H11.4325L12.1371 29.6364H13.3388L14.0547 32.5511H14.0916L14.7564 29.6364H15.978L14.7933 34H13.5121L12.7621 31.2557H12.7081L11.9581 34H10.6797Z" fill="#3C3C3D"/>
<path d="M118.506 34V28.1818H119.736V30.5824H122.233V28.1818H123.46V34H122.233V31.5966H119.736V34H118.506ZM124.452 34V29.6364H125.662V34H124.452ZM125.06 29.0739C124.88 29.0739 124.725 29.0142 124.597 28.8949C124.47 28.7737 124.406 28.6288 124.406 28.4602C124.406 28.2936 124.47 28.1506 124.597 28.0312C124.725 27.91 124.88 27.8494 125.06 27.8494C125.24 27.8494 125.393 27.91 125.52 28.0312C125.649 28.1506 125.713 28.2936 125.713 28.4602C125.713 28.6288 125.649 28.7737 125.52 28.8949C125.393 29.0142 125.24 29.0739 125.06 29.0739ZM128.597 35.7273C128.205 35.7273 127.869 35.6733 127.589 35.5653C127.31 35.4593 127.089 35.3144 126.924 35.1307C126.759 34.947 126.652 34.7405 126.603 34.5114L127.722 34.3608C127.756 34.4479 127.81 34.5294 127.884 34.6051C127.958 34.6809 128.056 34.7415 128.177 34.7869C128.3 34.8343 128.45 34.858 128.626 34.858C128.889 34.858 129.106 34.7936 129.276 34.6648C129.449 34.5379 129.535 34.3248 129.535 34.0256V33.2273H129.484C129.431 33.3485 129.351 33.4631 129.245 33.571C129.139 33.679 129.003 33.767 128.836 33.8352C128.669 33.9034 128.47 33.9375 128.239 33.9375C127.912 33.9375 127.613 33.8617 127.344 33.7102C127.077 33.5568 126.864 33.3229 126.705 33.0085C126.548 32.6922 126.469 32.2926 126.469 31.8097C126.469 31.3153 126.55 30.9025 126.711 30.571C126.872 30.2396 127.086 29.9915 127.353 29.8267C127.622 29.6619 127.916 29.5795 128.237 29.5795C128.481 29.5795 128.685 29.6212 128.85 29.7045C129.015 29.786 129.147 29.8883 129.248 30.0114C129.35 30.1326 129.429 30.2519 129.484 30.3693H129.529V29.6364H130.731V34.0426C130.731 34.4138 130.64 34.7244 130.458 34.9744C130.276 35.2244 130.024 35.4119 129.702 35.5369C129.382 35.6638 129.014 35.7273 128.597 35.7273ZM128.623 33.0284C128.818 33.0284 128.983 32.9801 129.117 32.8835C129.254 32.785 129.358 32.6449 129.43 32.4631C129.504 32.2794 129.54 32.0597 129.54 31.804C129.54 31.5483 129.504 31.3267 129.433 31.1392C129.361 30.9498 129.256 30.803 129.12 30.6989C128.984 30.5947 128.818 30.5426 128.623 30.5426C128.424 30.5426 128.256 30.5966 128.12 30.7045C127.984 30.8106 127.88 30.9583 127.81 31.1477C127.74 31.3371 127.705 31.5559 127.705 31.804C127.705 32.0559 127.74 32.2737 127.81 32.4574C127.882 32.6392 127.986 32.7803 128.12 32.8807C128.256 32.9792 128.424 33.0284 128.623 33.0284ZM132.904 31.4773V34H131.694V28.1818H132.87V30.4062H132.921C133.02 30.1487 133.179 29.947 133.398 29.8011C133.618 29.6534 133.894 29.5795 134.225 29.5795C134.528 29.5795 134.792 29.6458 135.018 29.7784C135.245 29.9091 135.421 30.0975 135.546 30.3438C135.673 30.5881 135.736 30.8807 135.734 31.2216V34H134.523V31.4375C134.525 31.1686 134.457 30.9593 134.319 30.8097C134.183 30.66 133.991 30.5852 133.745 30.5852C133.58 30.5852 133.434 30.6203 133.308 30.6903C133.183 30.7604 133.084 30.8627 133.012 30.9972C132.942 31.1297 132.906 31.2898 132.904 31.4773Z" fill="#3C3C3D"/>
<path d="M43.7528 8.12784C43.2642 8.12595 42.8438 8.00568 42.4915 7.76705C42.1411 7.52841 41.8712 7.18277 41.6818 6.73011C41.4943 6.27746 41.4015 5.73295 41.4034 5.09659C41.4034 4.46212 41.4972 3.9214 41.6847 3.47443C41.8741 3.02746 42.1439 2.6875 42.4943 2.45455C42.8466 2.2197 43.2661 2.10227 43.7528 2.10227C44.2396 2.10227 44.6581 2.2197 45.0085 2.45455C45.3608 2.68939 45.6316 3.0303 45.821 3.47727C46.0104 3.92235 46.1042 4.46212 46.1023 5.09659C46.1023 5.73485 46.0076 6.2803 45.8182 6.73295C45.6307 7.18561 45.3617 7.53125 45.0114 7.76989C44.661 8.00852 44.2415 8.12784 43.7528 8.12784ZM43.7528 7.10795C44.0862 7.10795 44.3523 6.94034 44.5511 6.60511C44.75 6.26989 44.8485 5.76705 44.8466 5.09659C44.8466 4.6553 44.8011 4.28788 44.7102 3.99432C44.6212 3.70076 44.4943 3.48011 44.3295 3.33239C44.1667 3.18466 43.9744 3.1108 43.7528 3.1108C43.4214 3.1108 43.1563 3.27652 42.9574 3.60795C42.7585 3.93939 42.6581 4.43561 42.6562 5.09659C42.6562 5.54356 42.7008 5.91667 42.7898 6.21591C42.8807 6.51326 43.0085 6.73674 43.1733 6.88636C43.3381 7.03409 43.5312 7.10795 43.7528 7.10795ZM47.4638 8.07386C47.2763 8.07386 47.1153 8.00758 46.9808 7.875C46.8482 7.74053 46.782 7.57955 46.782 7.39205C46.782 7.20644 46.8482 7.04735 46.9808 6.91477C47.1153 6.7822 47.2763 6.71591 47.4638 6.71591C47.6456 6.71591 47.8047 6.7822 47.9411 6.91477C48.0774 7.04735 48.1456 7.20644 48.1456 7.39205C48.1456 7.51705 48.1134 7.63163 48.049 7.7358C47.9865 7.83807 47.9041 7.92045 47.8018 7.98295C47.6996 8.04356 47.5869 8.07386 47.4638 8.07386ZM51.206 8.07955C50.8045 8.07955 50.4465 8.00568 50.1321 7.85795C49.8196 7.71023 49.5715 7.50663 49.3878 7.24716C49.2041 6.98769 49.1084 6.69034 49.1009 6.35511H50.294C50.3073 6.58049 50.402 6.76326 50.5781 6.90341C50.7543 7.04356 50.9635 7.11364 51.206 7.11364C51.3991 7.11364 51.5696 7.07102 51.7173 6.9858C51.867 6.89867 51.9834 6.77841 52.0668 6.625C52.152 6.4697 52.1946 6.29167 52.1946 6.09091C52.1946 5.88636 52.151 5.70644 52.0639 5.55114C51.9787 5.39583 51.8603 5.27462 51.7088 5.1875C51.5573 5.10038 51.384 5.05587 51.1889 5.05398C51.0185 5.05398 50.8527 5.08902 50.6918 5.15909C50.5327 5.22917 50.4086 5.32481 50.3196 5.44602L49.2259 5.25L49.5014 2.18182H53.0582V3.1875H50.5156L50.3651 4.64489H50.3991C50.5014 4.50095 50.6558 4.38163 50.8622 4.28693C51.0687 4.19223 51.2997 4.14489 51.5554 4.14489C51.9058 4.14489 52.2183 4.22727 52.4929 4.39205C52.7675 4.55682 52.9844 4.78314 53.1435 5.07102C53.3026 5.35701 53.3812 5.68655 53.3793 6.05966C53.3812 6.4517 53.2902 6.80019 53.1065 7.10511C52.9247 7.40814 52.67 7.64678 52.3423 7.82102C52.0166 7.99337 51.6378 8.07955 51.206 8.07955Z" fill="#3C3C3D"/>
<path d="M84.0028 2.18182V8H82.7727V3.34943H82.7386L81.4062 4.18466V3.09375L82.8466 2.18182H84.0028ZM85.7919 8.07386C85.6044 8.07386 85.4434 8.00758 85.3089 7.875C85.1764 7.74053 85.1101 7.57955 85.1101 7.39205C85.1101 7.20644 85.1764 7.04735 85.3089 6.91477C85.4434 6.7822 85.6044 6.71591 85.7919 6.71591C85.9737 6.71591 86.1328 6.7822 86.2692 6.91477C86.4055 7.04735 86.4737 7.20644 86.4737 7.39205C86.4737 7.51705 86.4415 7.63163 86.3771 7.7358C86.3146 7.83807 86.2322 7.92045 86.13 7.98295C86.0277 8.04356 85.915 8.07386 85.7919 8.07386ZM89.5341 8.07955C89.1326 8.07955 88.7746 8.00568 88.4602 7.85795C88.1477 7.71023 87.8996 7.50663 87.7159 7.24716C87.5322 6.98769 87.4366 6.69034 87.429 6.35511H88.6222C88.6354 6.58049 88.7301 6.76326 88.9062 6.90341C89.0824 7.04356 89.2917 7.11364 89.5341 7.11364C89.7273 7.11364 89.8977 7.07102 90.0455 6.9858C90.1951 6.89867 90.3116 6.77841 90.3949 6.625C90.4801 6.4697 90.5227 6.29167 90.5227 6.09091C90.5227 5.88636 90.4792 5.70644 90.392 5.55114C90.3068 5.39583 90.1884 5.27462 90.0369 5.1875C89.8854 5.10038 89.7121 5.05587 89.517 5.05398C89.3466 5.05398 89.1809 5.08902 89.0199 5.15909C88.8608 5.22917 88.7367 5.32481 88.6477 5.44602L87.554 5.25L87.8295 2.18182H91.3864V3.1875H88.8438L88.6932 4.64489H88.7273C88.8295 4.50095 88.9839 4.38163 89.1903 4.28693C89.3968 4.19223 89.6278 4.14489 89.8835 4.14489C90.2339 4.14489 90.5464 4.22727 90.821 4.39205C91.0956 4.55682 91.3125 4.78314 91.4716 5.07102C91.6307 5.35701 91.7093 5.68655 91.7074 6.05966C91.7093 6.4517 91.6184 6.80019 91.4347 7.10511C91.2528 7.40814 90.9981 7.64678 90.6705 7.82102C90.3447 7.99337 89.9659 8.07955 89.5341 8.07955Z" fill="#3C3C3D"/>
<path d="M121.472 8V7.11364L123.543 5.19602C123.719 5.02557 123.866 4.87216 123.986 4.7358C124.107 4.59943 124.199 4.46591 124.261 4.33523C124.324 4.20265 124.355 4.05966 124.355 3.90625C124.355 3.7358 124.316 3.58902 124.239 3.46591C124.161 3.34091 124.055 3.24527 123.92 3.17898C123.786 3.1108 123.634 3.0767 123.463 3.0767C123.285 3.0767 123.13 3.11269 122.997 3.18466C122.865 3.25663 122.762 3.35985 122.69 3.49432C122.618 3.62879 122.582 3.78883 122.582 3.97443H121.415C121.415 3.59375 121.501 3.26326 121.673 2.98295C121.846 2.70265 122.087 2.4858 122.398 2.33239C122.708 2.17898 123.066 2.10227 123.472 2.10227C123.888 2.10227 124.251 2.17614 124.56 2.32386C124.87 2.4697 125.112 2.67235 125.284 2.93182C125.456 3.19129 125.543 3.48864 125.543 3.82386C125.543 4.04356 125.499 4.26042 125.412 4.47443C125.327 4.68845 125.174 4.92614 124.955 5.1875C124.735 5.44697 124.425 5.75852 124.026 6.12216L123.176 6.95455V6.99432H125.619V8H121.472ZM128.249 7.11364V3.09091H129.266V7.11364H128.249ZM126.746 5.6108V4.59375H130.769V5.6108H126.746Z" fill="#3C3C3D"/>
<path d="M38.7085 40V34.1818H42.1971V34.8068H39.413V36.7727H41.9357V37.3977H39.413V40H38.7085ZM43.9833 34.1818V40H43.3129V34.1818H43.9833ZM46.984 40.0909C46.5901 40.0909 46.2444 39.9972 45.9471 39.8097C45.6516 39.6222 45.4206 39.3598 45.2539 39.0227C45.0891 38.6856 45.0067 38.2917 45.0067 37.8409C45.0067 37.3864 45.0891 36.9896 45.2539 36.6506C45.4206 36.3116 45.6516 36.0483 45.9471 35.8608C46.2444 35.6733 46.5901 35.5795 46.984 35.5795C47.378 35.5795 47.7227 35.6733 48.0181 35.8608C48.3155 36.0483 48.5465 36.3116 48.7113 36.6506C48.878 36.9896 48.9613 37.3864 48.9613 37.8409C48.9613 38.2917 48.878 38.6856 48.7113 39.0227C48.5465 39.3598 48.3155 39.6222 48.0181 39.8097C47.7227 39.9972 47.378 40.0909 46.984 40.0909ZM46.984 39.4886C47.2833 39.4886 47.5295 39.4119 47.7227 39.2585C47.9158 39.1051 48.0588 38.9034 48.1516 38.6534C48.2444 38.4034 48.2908 38.1326 48.2908 37.8409C48.2908 37.5492 48.2444 37.2775 48.1516 37.0256C48.0588 36.7737 47.9158 36.5701 47.7227 36.4148C47.5295 36.2595 47.2833 36.1818 46.984 36.1818C46.6848 36.1818 46.4386 36.2595 46.2454 36.4148C46.0522 36.5701 45.9092 36.7737 45.8164 37.0256C45.7236 37.2775 45.6772 37.5492 45.6772 37.8409C45.6772 38.1326 45.7236 38.4034 45.8164 38.6534C45.9092 38.9034 46.0522 39.1051 46.2454 39.2585C46.4386 39.4119 46.6848 39.4886 46.984 39.4886ZM51.7575 40.0909C51.3635 40.0909 51.0179 39.9972 50.7205 39.8097C50.4251 39.6222 50.194 39.3598 50.0273 39.0227C49.8626 38.6856 49.7802 38.2917 49.7802 37.8409C49.7802 37.3864 49.8626 36.9896 50.0273 36.6506C50.194 36.3116 50.4251 36.0483 50.7205 35.8608C51.0179 35.6733 51.3635 35.5795 51.7575 35.5795C52.1514 35.5795 52.4961 35.6733 52.7915 35.8608C53.0889 36.0483 53.32 36.3116 53.4847 36.6506C53.6514 36.9896 53.7347 37.3864 53.7347 37.8409C53.7347 38.2917 53.6514 38.6856 53.4847 39.0227C53.32 39.3598 53.0889 39.6222 52.7915 39.8097C52.4961 39.9972 52.1514 40.0909 51.7575 40.0909ZM51.7575 39.4886C52.0567 39.4886 52.3029 39.4119 52.4961 39.2585C52.6893 39.1051 52.8323 38.9034 52.9251 38.6534C53.0179 38.4034 53.0643 38.1326 53.0643 37.8409C53.0643 37.5492 53.0179 37.2775 52.9251 37.0256C52.8323 36.7737 52.6893 36.5701 52.4961 36.4148C52.3029 36.2595 52.0567 36.1818 51.7575 36.1818C51.4582 36.1818 51.212 36.2595 51.0188 36.4148C50.8256 36.5701 50.6826 36.7737 50.5898 37.0256C50.497 37.2775 50.4506 37.5492 50.4506 37.8409C50.4506 38.1326 50.497 38.4034 50.5898 38.6534C50.6826 38.9034 50.8256 39.1051 51.0188 39.2585C51.212 39.4119 51.4582 39.4886 51.7575 39.4886ZM56.4059 40.0909C56.0423 40.0909 55.7212 39.9991 55.4428 39.8153C55.1644 39.6297 54.9466 39.3684 54.7894 39.0312C54.6322 38.6922 54.5536 38.2917 54.5536 37.8295C54.5536 37.3712 54.6322 36.9735 54.7894 36.6364C54.9466 36.2992 55.1654 36.0388 55.4457 35.8551C55.726 35.6714 56.0498 35.5795 56.4173 35.5795C56.7013 35.5795 56.9258 35.6269 57.0906 35.7216C57.2572 35.8144 57.3841 35.9205 57.4712 36.0398C57.5603 36.1572 57.6294 36.2538 57.6786 36.3295H57.7354V34.1818H58.4059V40H57.7582V39.3295H57.6786C57.6294 39.4091 57.5593 39.5095 57.4684 39.6307C57.3775 39.75 57.2478 39.857 57.0792 39.9517C56.9106 40.0445 56.6862 40.0909 56.4059 40.0909ZM56.4968 39.4886C56.7657 39.4886 56.993 39.4186 57.1786 39.2784C57.3642 39.1364 57.5053 38.9403 57.6019 38.6903C57.6985 38.4384 57.7468 38.1477 57.7468 37.8182C57.7468 37.4924 57.6995 37.2074 57.6048 36.9631C57.5101 36.7169 57.3699 36.5256 57.1843 36.3892C56.9987 36.2509 56.7695 36.1818 56.4968 36.1818C56.2127 36.1818 55.976 36.2547 55.7866 36.4006C55.5991 36.5445 55.458 36.7405 55.3633 36.9886C55.2705 37.2348 55.2241 37.5114 55.2241 37.8182C55.2241 38.1288 55.2714 38.411 55.3661 38.6648C55.4627 38.9167 55.6048 39.1174 55.7923 39.267C55.9817 39.4148 56.2165 39.4886 56.4968 39.4886ZM65.2496 35.6364C65.2156 35.3485 65.0773 35.125 64.8349 34.9659C64.5924 34.8068 64.2951 34.7273 63.9428 34.7273C63.6853 34.7273 63.4599 34.7689 63.2667 34.8523C63.0754 34.9356 62.9258 35.0502 62.8178 35.196C62.7118 35.3419 62.6587 35.5076 62.6587 35.6932C62.6587 35.8485 62.6957 35.982 62.7695 36.0938C62.8453 36.2036 62.9419 36.2955 63.0593 36.3693C63.1767 36.4413 63.2998 36.5009 63.4286 36.5483C63.5574 36.5937 63.6758 36.6307 63.7837 36.6591L64.3746 36.8182C64.5262 36.858 64.6947 36.9129 64.8803 36.983C65.0678 37.053 65.2468 37.1487 65.4173 37.2699C65.5896 37.3892 65.7317 37.5426 65.8434 37.7301C65.9551 37.9176 66.011 38.1477 66.011 38.4205C66.011 38.7348 65.9286 39.0189 65.7638 39.2727C65.601 39.5265 65.3623 39.7282 65.0479 39.8778C64.7354 40.0275 64.3557 40.1023 63.9087 40.1023C63.4921 40.1023 63.1313 40.035 62.8263 39.9006C62.5233 39.7661 62.2847 39.5786 62.1104 39.3381C61.9381 39.0975 61.8406 38.8182 61.8178 38.5H62.5451C62.564 38.7197 62.6379 38.9015 62.7667 39.0455C62.8974 39.1875 63.0621 39.2936 63.261 39.3636C63.4618 39.4318 63.6777 39.4659 63.9087 39.4659C64.1777 39.4659 64.4192 39.4223 64.6332 39.3352C64.8472 39.2462 65.0167 39.1231 65.1417 38.9659C65.2667 38.8068 65.3292 38.6212 65.3292 38.4091C65.3292 38.2159 65.2752 38.0587 65.1673 37.9375C65.0593 37.8163 64.9173 37.7178 64.7411 37.642C64.565 37.5663 64.3746 37.5 64.1701 37.4432L63.4542 37.2386C62.9996 37.108 62.6398 36.9214 62.3746 36.679C62.1095 36.4366 61.9769 36.1193 61.9769 35.7273C61.9769 35.4015 62.065 35.1174 62.2411 34.875C62.4192 34.6307 62.6578 34.4413 62.957 34.3068C63.2582 34.1705 63.5943 34.1023 63.9656 34.1023C64.3406 34.1023 64.6739 34.1695 64.9656 34.304C65.2572 34.4366 65.4883 34.6184 65.6587 34.8494C65.8311 35.0805 65.922 35.3428 65.9315 35.6364H65.2496ZM68.8512 40.0909C68.4421 40.0909 68.0898 39.9943 67.7944 39.8011C67.4989 39.608 67.2717 39.3419 67.1126 39.0028C66.9535 38.6638 66.8739 38.2765 66.8739 37.8409C66.8739 37.3977 66.9554 37.0066 67.1183 36.6676C67.283 36.3267 67.5122 36.0606 67.8058 35.8693C68.1012 35.6761 68.4459 35.5795 68.8398 35.5795C69.1467 35.5795 69.4232 35.6364 69.6694 35.75C69.9156 35.8636 70.1173 36.0227 70.2745 36.2273C70.4317 36.4318 70.5292 36.6705 70.5671 36.9432H69.8967C69.8455 36.7443 69.7319 36.5682 69.5558 36.4148C69.3815 36.2595 69.1467 36.1818 68.8512 36.1818C68.5898 36.1818 68.3607 36.25 68.1637 36.3864C67.9686 36.5208 67.8162 36.7112 67.7063 36.9574C67.5984 37.2017 67.5444 37.4886 67.5444 37.8182C67.5444 38.1553 67.5974 38.4489 67.7035 38.6989C67.8114 38.9489 67.9629 39.143 68.158 39.2812C68.355 39.4195 68.5861 39.4886 68.8512 39.4886C69.0254 39.4886 69.1836 39.4583 69.3256 39.3977C69.4677 39.3371 69.5879 39.25 69.6864 39.1364C69.7849 39.0227 69.855 38.8864 69.8967 38.7273H70.5671C70.5292 38.9848 70.4355 39.2169 70.2859 39.4233C70.1381 39.6278 69.9421 39.7907 69.6978 39.9119C69.4554 40.0312 69.1732 40.0909 68.8512 40.0909ZM72.8313 40.1023C72.5548 40.1023 72.3039 40.0502 72.0785 39.946C71.8531 39.84 71.6741 39.6875 71.5415 39.4886C71.409 39.2879 71.3427 39.0455 71.3427 38.7614C71.3427 38.5114 71.3919 38.3087 71.4904 38.1534C71.5889 37.9962 71.7205 37.8731 71.8853 37.7841C72.0501 37.6951 72.2319 37.6288 72.4308 37.5852C72.6315 37.5398 72.8332 37.5038 73.0359 37.4773C73.301 37.4432 73.516 37.4176 73.6808 37.4006C73.8474 37.3816 73.9686 37.3504 74.0444 37.3068C74.122 37.2633 74.1609 37.1875 74.1609 37.0795V37.0568C74.1609 36.7765 74.0842 36.5587 73.9308 36.4034C73.7792 36.2481 73.5491 36.1705 73.2404 36.1705C72.9203 36.1705 72.6694 36.2405 72.4876 36.3807C72.3058 36.5208 72.1779 36.6705 72.104 36.8295L71.4677 36.6023C71.5813 36.3371 71.7328 36.1307 71.9222 35.983C72.1135 35.8333 72.3219 35.7292 72.5472 35.6705C72.7745 35.6098 72.998 35.5795 73.2177 35.5795C73.3578 35.5795 73.5188 35.5966 73.7006 35.6307C73.8844 35.6629 74.0614 35.7301 74.2319 35.8324C74.4042 35.9347 74.5472 36.089 74.6609 36.2955C74.7745 36.5019 74.8313 36.7784 74.8313 37.125V40H74.1609V39.4091H74.1268C74.0813 39.5038 74.0056 39.6051 73.8995 39.7131C73.7934 39.821 73.6523 39.9129 73.4762 39.9886C73.3001 40.0644 73.0851 40.1023 72.8313 40.1023ZM72.9336 39.5C73.1987 39.5 73.4222 39.4479 73.604 39.3438C73.7878 39.2396 73.926 39.1051 74.0188 38.9403C74.1135 38.7756 74.1609 38.6023 74.1609 38.4205V37.8068C74.1325 37.8409 74.07 37.8722 73.9734 37.9006C73.8787 37.9271 73.7688 37.9508 73.6438 37.9716C73.5207 37.9905 73.4004 38.0076 73.283 38.0227C73.1675 38.036 73.0737 38.0473 73.0018 38.0568C72.8275 38.0795 72.6647 38.1165 72.5131 38.1676C72.3635 38.2169 72.2423 38.2917 72.1495 38.392C72.0586 38.4905 72.0131 38.625 72.0131 38.7955C72.0131 39.0284 72.0993 39.2045 72.2717 39.3239C72.4459 39.4413 72.6665 39.5 72.9336 39.5ZM76.7255 34.1818V40H76.055V34.1818H76.7255ZM79.783 40.0909C79.3626 40.0909 78.9999 39.9981 78.695 39.8125C78.3919 39.625 78.158 39.3636 77.9933 39.0284C77.8304 38.6913 77.7489 38.2992 77.7489 37.8523C77.7489 37.4053 77.8304 37.0114 77.9933 36.6705C78.158 36.3277 78.3872 36.0606 78.6808 35.8693C78.9762 35.6761 79.3209 35.5795 79.7148 35.5795C79.9421 35.5795 80.1665 35.6174 80.3881 35.6932C80.6097 35.7689 80.8114 35.892 80.9933 36.0625C81.1751 36.2311 81.32 36.4545 81.4279 36.733C81.5359 37.0114 81.5898 37.3542 81.5898 37.7614V38.0455H78.2262V37.4659H80.908C80.908 37.2197 80.8588 37 80.7603 36.8068C80.6637 36.6136 80.5254 36.4612 80.3455 36.3494C80.1675 36.2377 79.9573 36.1818 79.7148 36.1818C79.4478 36.1818 79.2167 36.2481 79.0217 36.3807C78.8285 36.5114 78.6798 36.6818 78.5756 36.892C78.4715 37.1023 78.4194 37.3277 78.4194 37.5682V37.9545C78.4194 38.2841 78.4762 38.5634 78.5898 38.7926C78.7054 39.0199 78.8654 39.1932 79.07 39.3125C79.2745 39.4299 79.5122 39.4886 79.783 39.4886C79.9592 39.4886 80.1183 39.464 80.2603 39.4148C80.4042 39.3636 80.5283 39.2879 80.6325 39.1875C80.7366 39.0852 80.8171 38.9583 80.8739 38.8068L81.5217 38.9886C81.4535 39.2083 81.3389 39.4015 81.1779 39.5682C81.0169 39.733 80.8181 39.8617 80.5813 39.9545C80.3446 40.0455 80.0785 40.0909 79.783 40.0909ZM85.0984 37.5455C85.0984 36.8295 85.1912 36.1714 85.3768 35.571C85.5643 34.9687 85.8313 34.4148 86.1779 33.9091H86.7688C86.6325 34.0966 86.5046 34.3277 86.3853 34.6023C86.2679 34.875 86.1647 35.1752 86.0756 35.5028C85.9866 35.8286 85.9165 36.1657 85.8654 36.5142C85.8162 36.8627 85.7915 37.2064 85.7915 37.5455C85.7915 37.9962 85.8351 38.4536 85.9222 38.9176C86.0094 39.3816 86.1268 39.8125 86.2745 40.2102C86.4222 40.608 86.587 40.9318 86.7688 41.1818H86.1779C85.8313 40.6761 85.5643 40.1231 85.3768 39.5227C85.1912 38.9205 85.0984 38.2614 85.0984 37.5455ZM87.7582 40V35.6364H88.4059V36.3182H88.4627C88.5536 36.0852 88.7004 35.9044 88.9031 35.7756C89.1057 35.6449 89.3491 35.5795 89.6332 35.5795C89.921 35.5795 90.1606 35.6449 90.3519 35.7756C90.5451 35.9044 90.6957 36.0852 90.8036 36.3182H90.8491C90.9608 36.0928 91.1284 35.9138 91.3519 35.7812C91.5754 35.6468 91.8434 35.5795 92.1559 35.5795C92.546 35.5795 92.8652 35.7017 93.1133 35.946C93.3614 36.1884 93.4854 36.5663 93.4854 37.0795V40H92.815V37.0795C92.815 36.7576 92.7269 36.5275 92.5508 36.3892C92.3746 36.2509 92.1673 36.1818 91.9286 36.1818C91.6218 36.1818 91.3841 36.2746 91.2156 36.4602C91.047 36.6439 90.9627 36.8769 90.9627 37.1591V40H90.2809V37.0114C90.2809 36.7633 90.2004 36.5634 90.0394 36.4119C89.8784 36.2585 89.671 36.1818 89.4173 36.1818C89.243 36.1818 89.0801 36.2282 88.9286 36.321C88.779 36.4138 88.6578 36.5426 88.565 36.7074C88.4741 36.8703 88.4286 37.0587 88.4286 37.2727V40H87.7582ZM96.1431 37.5455C96.1431 38.2614 96.0494 38.9205 95.8619 39.5227C95.6763 40.1231 95.4102 40.6761 95.0636 41.1818H94.4727C94.609 40.9943 94.7359 40.7633 94.8533 40.4886C94.9727 40.2159 95.0768 39.9167 95.1658 39.5909C95.2549 39.2633 95.324 38.9252 95.3732 38.5767C95.4244 38.2263 95.4499 37.8826 95.4499 37.5455C95.4499 37.0947 95.4064 36.6373 95.3192 36.1733C95.2321 35.7093 95.1147 35.2784 94.967 34.8807C94.8192 34.483 94.6545 34.1591 94.4727 33.9091H95.0636C95.4102 34.4148 95.6763 34.9687 95.8619 35.571C96.0494 36.1714 96.1431 36.8295 96.1431 37.5455Z" fill="#888888"/>
</svg>
