<svg width="146" height="42" viewBox="0 0 146 42" fill="none" xmlns="http://www.w3.org/2000/svg">
<rect width="19.8551" height="8" transform="matrix(1 0 0 -1 29.855 22)" fill="#EBCB62"/>
<rect width="19.8551" height="8" transform="matrix(1 0 0 -1 10 22)" fill="#CCCCCC"/>
<rect width="39.7101" height="8" transform="matrix(1 0 0 -1 49.71 22)" fill="#E59D59"/>
<rect width="39.0483" height="8" transform="matrix(1 0 0 -1 89.4202 22)" fill="#DA615C"/>
<path d="M0.505682 34V28.1818H1.7358V32.9858H4.23011V34H0.505682ZM5.02202 34V29.6364H6.23224V34H5.02202ZM5.62997 29.0739C5.45005 29.0739 5.29569 29.0142 5.1669 28.8949C5.04001 28.7737 4.97656 28.6288 4.97656 28.4602C4.97656 28.2936 5.04001 28.1506 5.1669 28.0312C5.29569 27.91 5.45005 27.8494 5.62997 27.8494C5.8099 27.8494 5.9633 27.91 6.0902 28.0312C6.21899 28.1506 6.28338 28.2936 6.28338 28.4602C6.28338 28.6288 6.21899 28.7737 6.0902 28.8949C5.9633 29.0142 5.8099 29.0739 5.62997 29.0739ZM9.16761 35.7273C8.77557 35.7273 8.43939 35.6733 8.15909 35.5653C7.88068 35.4593 7.65909 35.3144 7.49432 35.1307C7.32955 34.947 7.22254 34.7405 7.1733 34.5114L8.29261 34.3608C8.3267 34.4479 8.38068 34.5294 8.45455 34.6051C8.52841 34.6809 8.62595 34.7415 8.74716 34.7869C8.87027 34.8343 9.01989 34.858 9.19602 34.858C9.45928 34.858 9.67614 34.7936 9.84659 34.6648C10.0189 34.5379 10.1051 34.3248 10.1051 34.0256V33.2273H10.054C10.0009 33.3485 9.9214 33.4631 9.81534 33.571C9.70928 33.679 9.57292 33.767 9.40625 33.8352C9.23958 33.9034 9.04072 33.9375 8.80966 33.9375C8.48201 33.9375 8.18371 33.8617 7.91477 33.7102C7.64773 33.5568 7.43466 33.3229 7.27557 33.0085C7.11837 32.6922 7.03977 32.2926 7.03977 31.8097C7.03977 31.3153 7.12027 30.9025 7.28125 30.571C7.44223 30.2396 7.65625 29.9915 7.9233 29.8267C8.19223 29.6619 8.48674 29.5795 8.80682 29.5795C9.05114 29.5795 9.25568 29.6212 9.42045 29.7045C9.58523 29.786 9.7178 29.8883 9.81818 30.0114C9.92045 30.1326 9.99905 30.2519 10.054 30.3693H10.0994V29.6364H11.3011V34.0426C11.3011 34.4138 11.2102 34.7244 11.0284 34.9744C10.8466 35.2244 10.5947 35.4119 10.2727 35.5369C9.95265 35.6638 9.58428 35.7273 9.16761 35.7273ZM9.19318 33.0284C9.38826 33.0284 9.55303 32.9801 9.6875 32.8835C9.82386 32.785 9.92803 32.6449 10 32.4631C10.0739 32.2794 10.1108 32.0597 10.1108 31.804C10.1108 31.5483 10.0748 31.3267 10.0028 31.1392C9.93087 30.9498 9.8267 30.803 9.69034 30.6989C9.55398 30.5947 9.38826 30.5426 9.19318 30.5426C8.99432 30.5426 8.8267 30.5966 8.69034 30.7045C8.55398 30.8106 8.45076 30.9583 8.38068 31.1477C8.31061 31.3371 8.27557 31.5559 8.27557 31.804C8.27557 32.0559 8.31061 32.2737 8.38068 32.4574C8.45265 32.6392 8.55587 32.7803 8.69034 32.8807C8.8267 32.9792 8.99432 33.0284 9.19318 33.0284ZM13.4744 31.4773V34H12.2642V28.1818H13.4403V30.4062H13.4915C13.59 30.1487 13.7491 29.947 13.9688 29.8011C14.1884 29.6534 14.464 29.5795 14.7955 29.5795C15.0985 29.5795 15.3627 29.6458 15.5881 29.7784C15.8153 29.9091 15.9915 30.0975 16.1165 30.3438C16.2434 30.5881 16.3059 30.8807 16.304 31.2216V34H15.0938V31.4375C15.0956 31.1686 15.0275 30.9593 14.8892 30.8097C14.7528 30.66 14.5616 30.5852 14.3153 30.5852C14.1506 30.5852 14.0047 30.6203 13.8778 30.6903C13.7528 30.7604 13.6544 30.8627 13.5824 30.9972C13.5123 31.1297 13.4763 31.2898 13.4744 31.4773ZM19.5774 29.6364V30.5455H16.9496V29.6364H19.5774ZM17.5462 28.5909H18.7564V32.6591C18.7564 32.7708 18.7734 32.858 18.8075 32.9205C18.8416 32.9811 18.889 33.0237 18.9496 33.0483C19.0121 33.0729 19.084 33.0852 19.1655 33.0852C19.2223 33.0852 19.2791 33.0805 19.3359 33.071C19.3928 33.0597 19.4363 33.0511 19.4666 33.0455L19.657 33.946C19.5964 33.965 19.5111 33.9867 19.4013 34.0114C19.2914 34.0379 19.1579 34.054 19.0007 34.0597C18.709 34.071 18.4534 34.0322 18.2337 33.9432C18.0159 33.8542 17.8464 33.7159 17.7251 33.5284C17.6039 33.3409 17.5443 33.1042 17.5462 32.8182V28.5909Z" fill="#3C3C3C"/>
<path d="M9.98444 8.12784C9.49581 8.12595 9.07535 8.00568 8.72308 7.76705C8.3727 7.52841 8.10281 7.18277 7.91342 6.73011C7.72592 6.27746 7.63312 5.73295 7.63501 5.09659C7.63501 4.46212 7.72876 3.9214 7.91626 3.47443C8.10565 3.02746 8.37554 2.6875 8.72592 2.45455C9.07819 2.2197 9.4977 2.10227 9.98444 2.10227C10.4712 2.10227 10.8897 2.2197 11.2401 2.45455C11.5924 2.68939 11.8632 3.0303 12.0526 3.47727C12.242 3.92235 12.3358 4.46212 12.3339 5.09659C12.3339 5.73485 12.2392 6.2803 12.0498 6.73295C11.8623 7.18561 11.5933 7.53125 11.243 7.76989C10.8926 8.00852 10.4731 8.12784 9.98444 8.12784ZM9.98444 7.10795C10.3178 7.10795 10.5839 6.94034 10.7827 6.60511C10.9816 6.26989 11.0801 5.76705 11.0782 5.09659C11.0782 4.6553 11.0327 4.28788 10.9418 3.99432C10.8528 3.70076 10.7259 3.48011 10.5611 3.33239C10.3983 3.18466 10.206 3.1108 9.98444 3.1108C9.653 3.1108 9.38785 3.27652 9.18899 3.60795C8.99012 3.93939 8.88974 4.43561 8.88785 5.09659C8.88785 5.54356 8.93236 5.91667 9.02137 6.21591C9.11228 6.51326 9.24012 6.73674 9.4049 6.88636C9.56967 7.03409 9.76285 7.10795 9.98444 7.10795Z" fill="#3C3C3C"/>
<path d="M24.606 8L27.0179 3.22727V3.1875H24.2083V2.18182H28.2907V3.2017L25.8759 8H24.606ZM28.8525 8.07386C28.665 8.07386 28.504 8.00758 28.3695 7.875C28.2369 7.74053 28.1706 7.57955 28.1706 7.39205C28.1706 7.20644 28.2369 7.04735 28.3695 6.91477C28.504 6.7822 28.665 6.71591 28.8525 6.71591C29.0343 6.71591 29.1934 6.7822 29.3297 6.91477C29.4661 7.04735 29.5343 7.20644 29.5343 7.39205C29.5343 7.51705 29.5021 7.63163 29.4377 7.7358C29.3752 7.83807 29.2928 7.92045 29.1905 7.98295C29.0882 8.04356 28.9756 8.07386 28.8525 8.07386ZM32.5946 8.07955C32.1931 8.07955 31.8352 8.00568 31.5208 7.85795C31.2083 7.71023 30.9602 7.50663 30.7765 7.24716C30.5927 6.98769 30.4971 6.69034 30.4895 6.35511H31.6827C31.696 6.58049 31.7907 6.76326 31.9668 6.90341C32.1429 7.04356 32.3522 7.11364 32.5946 7.11364C32.7878 7.11364 32.9583 7.07102 33.106 6.9858C33.2556 6.89867 33.3721 6.77841 33.4554 6.625C33.5407 6.4697 33.5833 6.29167 33.5833 6.09091C33.5833 5.88636 33.5397 5.70644 33.4526 5.55114C33.3674 5.39583 33.249 5.27462 33.0975 5.1875C32.946 5.10038 32.7727 5.05587 32.5776 5.05398C32.4071 5.05398 32.2414 5.08902 32.0804 5.15909C31.9213 5.22917 31.7973 5.32481 31.7083 5.44602L30.6145 5.25L30.8901 2.18182H34.4469V3.1875H31.9043L31.7537 4.64489H31.7878C31.8901 4.50095 32.0444 4.38163 32.2509 4.28693C32.4573 4.19223 32.6884 4.14489 32.9441 4.14489C33.2944 4.14489 33.6069 4.22727 33.8816 4.39205C34.1562 4.55682 34.373 4.78314 34.5321 5.07102C34.6912 5.35701 34.7698 5.68655 34.7679 6.05966C34.7698 6.4517 34.6789 6.80019 34.4952 7.10511C34.3134 7.40814 34.0587 7.64678 33.731 7.82102C33.4052 7.99337 33.0265 8.07955 32.5946 8.07955Z" fill="#3C3C3C"/>
<path d="M47.997 2.18182V8H46.7669V3.34943H46.7328L45.4004 4.18466V3.09375L46.8407 2.18182H47.997ZM51.5048 8.07955C51.1033 8.07955 50.7453 8.00568 50.4309 7.85795C50.1184 7.71023 49.8703 7.50663 49.6866 7.24716C49.5029 6.98769 49.4073 6.69034 49.3997 6.35511H50.5929C50.6061 6.58049 50.7008 6.76326 50.877 6.90341C51.0531 7.04356 51.2624 7.11364 51.5048 7.11364C51.698 7.11364 51.8684 7.07102 52.0162 6.9858C52.1658 6.89867 52.2823 6.77841 52.3656 6.625C52.4508 6.4697 52.4934 6.29167 52.4934 6.09091C52.4934 5.88636 52.4499 5.70644 52.3627 5.55114C52.2775 5.39583 52.1592 5.27462 52.0076 5.1875C51.8561 5.10038 51.6828 5.05587 51.4877 5.05398C51.3173 5.05398 51.1516 5.08902 50.9906 5.15909C50.8315 5.22917 50.7074 5.32481 50.6184 5.44602L49.5247 5.25L49.8002 2.18182H53.3571V3.1875H50.8145L50.6639 4.64489H50.698C50.8002 4.50095 50.9546 4.38163 51.161 4.28693C51.3675 4.19223 51.5985 4.14489 51.8542 4.14489C52.2046 4.14489 52.5171 4.22727 52.7917 4.39205C53.0663 4.55682 53.2832 4.78314 53.4423 5.07102C53.6014 5.35701 53.68 5.68655 53.6781 6.05966C53.68 6.4517 53.5891 6.80019 53.4054 7.10511C53.2235 7.40814 52.9688 7.64678 52.6412 7.82102C52.3154 7.99337 51.9366 8.07955 51.5048 8.07955Z" fill="#3C3C3C"/>
<path d="M86.2608 8.07955C85.8366 8.07955 85.4587 8.00663 85.1273 7.8608C84.7978 7.71307 84.5373 7.51042 84.3461 7.25284C84.1567 6.99337 84.0591 6.69413 84.0534 6.35511H85.2921C85.2997 6.49716 85.3461 6.62216 85.4313 6.73011C85.5184 6.83617 85.6339 6.91856 85.7779 6.97727C85.9218 7.03598 86.0837 7.06534 86.2637 7.06534C86.4512 7.06534 86.6169 7.0322 86.7608 6.96591C86.9048 6.89962 87.0175 6.80777 87.0989 6.69034C87.1803 6.57292 87.2211 6.4375 87.2211 6.28409C87.2211 6.12879 87.1775 5.99148 87.0904 5.87216C87.0051 5.75095 86.882 5.65625 86.7211 5.58807C86.562 5.51989 86.3726 5.4858 86.1529 5.4858H85.6103V4.58239H86.1529C86.3385 4.58239 86.5023 4.55019 86.6444 4.4858C86.7883 4.4214 86.9 4.33239 86.9796 4.21875C87.0591 4.10322 87.0989 3.96875 87.0989 3.81534C87.0989 3.66951 87.0639 3.54167 86.9938 3.43182C86.9256 3.32008 86.829 3.23295 86.704 3.17045C86.5809 3.10795 86.437 3.0767 86.2722 3.0767C86.1055 3.0767 85.9531 3.10701 85.8148 3.16761C85.6766 3.22633 85.5658 3.31061 85.4824 3.42045C85.3991 3.5303 85.3546 3.65909 85.3489 3.80682H84.1699C84.1756 3.47159 84.2712 3.17614 84.4569 2.92045C84.6425 2.66477 84.8925 2.46496 85.2069 2.32102C85.5231 2.17519 85.8801 2.10227 86.2779 2.10227C86.6794 2.10227 87.0307 2.17519 87.3319 2.32102C87.633 2.46686 87.8669 2.66383 88.0336 2.91193C88.2021 3.15814 88.2855 3.43466 88.2836 3.74148C88.2855 4.06723 88.1841 4.33902 87.9796 4.55682C87.7769 4.77462 87.5127 4.91288 87.187 4.97159V5.01705C87.615 5.07197 87.9408 5.22064 88.1642 5.46307C88.3896 5.7036 88.5014 6.00473 88.4995 6.36648C88.5014 6.69792 88.4057 6.99242 88.2125 7.25C88.0212 7.50758 87.757 7.71023 87.4199 7.85795C87.0828 8.00568 86.6964 8.07955 86.2608 8.07955ZM91.665 8.12784C91.1763 8.12595 90.7559 8.00568 90.4036 7.76705C90.0532 7.52841 89.7833 7.18277 89.5939 6.73011C89.4064 6.27746 89.3136 5.73295 89.3155 5.09659C89.3155 4.46212 89.4093 3.9214 89.5968 3.47443C89.7862 3.02746 90.056 2.6875 90.4064 2.45455C90.7587 2.2197 91.1782 2.10227 91.665 2.10227C92.1517 2.10227 92.5703 2.2197 92.9206 2.45455C93.2729 2.68939 93.5437 3.0303 93.7331 3.47727C93.9225 3.92235 94.0163 4.46212 94.0144 5.09659C94.0144 5.73485 93.9197 6.2803 93.7303 6.73295C93.5428 7.18561 93.2739 7.53125 92.9235 7.76989C92.5731 8.00852 92.1536 8.12784 91.665 8.12784ZM91.665 7.10795C91.9983 7.10795 92.2644 6.94034 92.4632 6.60511C92.6621 6.26989 92.7606 5.76705 92.7587 5.09659C92.7587 4.6553 92.7132 4.28788 92.6223 3.99432C92.5333 3.70076 92.4064 3.48011 92.2417 3.33239C92.0788 3.18466 91.8865 3.1108 91.665 3.1108C91.3335 3.1108 91.0684 3.27652 90.8695 3.60795C90.6706 3.93939 90.5703 4.43561 90.5684 5.09659C90.5684 5.54356 90.6129 5.91667 90.7019 6.21591C90.7928 6.51326 90.9206 6.73674 91.0854 6.88636C91.2502 7.03409 91.4434 7.10795 91.665 7.10795Z" fill="#3C3C3C"/>
<path d="M108.456 29.196V28.1818H113.234V29.196H111.453V34H110.237V29.196H108.456ZM115.337 34.0852C114.896 34.0852 114.514 33.9915 114.192 33.804C113.872 33.6146 113.625 33.3513 113.451 33.0142C113.277 32.6752 113.19 32.2822 113.19 31.8352C113.19 31.3845 113.277 30.9905 113.451 30.6534C113.625 30.3144 113.872 30.0511 114.192 29.8636C114.514 29.6742 114.896 29.5795 115.337 29.5795C115.779 29.5795 116.159 29.6742 116.479 29.8636C116.801 30.0511 117.049 30.3144 117.224 30.6534C117.398 30.9905 117.485 31.3845 117.485 31.8352C117.485 32.2822 117.398 32.6752 117.224 33.0142C117.049 33.3513 116.801 33.6146 116.479 33.804C116.159 33.9915 115.779 34.0852 115.337 34.0852ZM115.343 33.1477C115.544 33.1477 115.711 33.0909 115.846 32.9773C115.98 32.8617 116.082 32.7045 116.15 32.5057C116.22 32.3068 116.255 32.0805 116.255 31.8267C116.255 31.5729 116.22 31.3466 116.15 31.1477C116.082 30.9489 115.98 30.7917 115.846 30.6761C115.711 30.5606 115.544 30.5028 115.343 30.5028C115.14 30.5028 114.97 30.5606 114.832 30.6761C114.695 30.7917 114.592 30.9489 114.522 31.1477C114.454 31.3466 114.42 31.5729 114.42 31.8267C114.42 32.0805 114.454 32.3068 114.522 32.5057C114.592 32.7045 114.695 32.8617 114.832 32.9773C114.97 33.0909 115.14 33.1477 115.343 33.1477ZM118.272 34V29.6364H119.445V30.3977H119.491C119.57 30.1269 119.704 29.9223 119.891 29.7841C120.079 29.6439 120.295 29.5739 120.539 29.5739C120.6 29.5739 120.665 29.5777 120.735 29.5852C120.805 29.5928 120.867 29.6032 120.92 29.6165V30.6903C120.863 30.6733 120.784 30.6581 120.684 30.6449C120.584 30.6316 120.492 30.625 120.408 30.625C120.23 30.625 120.071 30.6638 119.931 30.7415C119.793 30.8172 119.683 30.9233 119.602 31.0597C119.522 31.196 119.482 31.3532 119.482 31.5312V34H118.272ZM121.545 34V29.6364H122.719V30.3977H122.764C122.844 30.1269 122.977 29.9223 123.165 29.7841C123.352 29.6439 123.568 29.5739 123.812 29.5739C123.873 29.5739 123.938 29.5777 124.009 29.5852C124.079 29.5928 124.14 29.6032 124.193 29.6165V30.6903C124.136 30.6733 124.058 30.6581 123.957 30.6449C123.857 30.6316 123.765 30.625 123.682 30.625C123.504 30.625 123.345 30.6638 123.205 30.7415C123.066 30.8172 122.956 30.9233 122.875 31.0597C122.795 31.196 122.756 31.3532 122.756 31.5312V34H121.545ZM126.604 34.0852C126.156 34.0852 125.769 33.9943 125.445 33.8125C125.123 33.6288 124.875 33.3693 124.701 33.0341C124.527 32.697 124.44 32.2983 124.44 31.8381C124.44 31.3892 124.527 30.9953 124.701 30.6562C124.875 30.3172 125.121 30.053 125.437 29.8636C125.755 29.6742 126.128 29.5795 126.556 29.5795C126.844 29.5795 127.112 29.6259 127.36 29.7188C127.61 29.8097 127.828 29.947 128.013 30.1307C128.201 30.3144 128.347 30.5455 128.451 30.8239C128.555 31.1004 128.607 31.4242 128.607 31.7955V32.1278H124.923V31.3778H127.468C127.468 31.2036 127.43 31.0492 127.354 30.9148C127.279 30.7803 127.174 30.6752 127.039 30.5994C126.906 30.5218 126.752 30.483 126.576 30.483C126.392 30.483 126.229 30.5256 126.087 30.6108C125.947 30.6941 125.837 30.8068 125.758 30.9489C125.678 31.089 125.638 31.2453 125.636 31.4176V32.1307C125.636 32.3466 125.675 32.5331 125.755 32.6903C125.836 32.8475 125.951 32.9688 126.099 33.054C126.246 33.1392 126.422 33.1818 126.624 33.1818C126.759 33.1818 126.882 33.1629 126.994 33.125C127.105 33.0871 127.201 33.0303 127.281 32.9545C127.36 32.8788 127.421 32.786 127.462 32.6761L128.582 32.75C128.525 33.0189 128.408 33.2538 128.232 33.4545C128.058 33.6534 127.833 33.8087 127.556 33.9205C127.281 34.0303 126.964 34.0852 126.604 34.0852ZM130.607 31.4773V34H129.397V29.6364H130.55V30.4062H130.602C130.698 30.1525 130.86 29.9517 131.087 29.804C131.315 29.6544 131.59 29.5795 131.914 29.5795C132.217 29.5795 132.481 29.6458 132.707 29.7784C132.932 29.911 133.107 30.1004 133.232 30.3466C133.357 30.5909 133.42 30.8826 133.42 31.2216V34H132.21V31.4375C132.211 31.1705 132.143 30.9621 132.005 30.8125C131.867 30.661 131.676 30.5852 131.434 30.5852C131.271 30.5852 131.127 30.6203 131.002 30.6903C130.879 30.7604 130.782 30.8627 130.712 30.9972C130.644 31.1297 130.609 31.2898 130.607 31.4773ZM136.695 29.6364V30.5455H134.067V29.6364H136.695ZM134.663 28.5909H135.874V32.6591C135.874 32.7708 135.891 32.858 135.925 32.9205C135.959 32.9811 136.006 33.0237 136.067 33.0483C136.129 33.0729 136.201 33.0852 136.283 33.0852C136.339 33.0852 136.396 33.0805 136.453 33.071C136.51 33.0597 136.554 33.0511 136.584 33.0455L136.774 33.946C136.714 33.965 136.628 33.9867 136.518 34.0114C136.409 34.0379 136.275 34.054 136.118 34.0597C135.826 34.071 135.571 34.0322 135.351 33.9432C135.133 33.8542 134.964 33.7159 134.842 33.5284C134.721 33.3409 134.661 33.1042 134.663 32.8182V28.5909ZM137.483 34V29.6364H138.693V34H137.483ZM138.091 29.0739C137.911 29.0739 137.757 29.0142 137.628 28.8949C137.501 28.7737 137.438 28.6288 137.438 28.4602C137.438 28.2936 137.501 28.1506 137.628 28.0312C137.757 27.91 137.911 27.8494 138.091 27.8494C138.271 27.8494 138.424 27.91 138.551 28.0312C138.68 28.1506 138.744 28.2936 138.744 28.4602C138.744 28.6288 138.68 28.7737 138.551 28.8949C138.424 29.0142 138.271 29.0739 138.091 29.0739ZM140.907 34.0824C140.629 34.0824 140.38 34.0341 140.163 33.9375C139.945 33.839 139.772 33.6941 139.646 33.5028C139.521 33.3097 139.458 33.0691 139.458 32.7812C139.458 32.5388 139.503 32.3352 139.592 32.1705C139.681 32.0057 139.802 31.8731 139.955 31.7727C140.109 31.6723 140.283 31.5966 140.478 31.5455C140.675 31.4943 140.881 31.4583 141.097 31.4375C141.351 31.411 141.556 31.3864 141.711 31.3636C141.866 31.339 141.979 31.303 142.049 31.2557C142.119 31.2083 142.154 31.1383 142.154 31.0455V31.0284C142.154 30.8485 142.097 30.7093 141.984 30.6108C141.872 30.5123 141.713 30.4631 141.506 30.4631C141.289 30.4631 141.115 30.5114 140.987 30.608C140.858 30.7027 140.772 30.822 140.731 30.9659L139.612 30.875C139.668 30.6098 139.78 30.3807 139.947 30.1875C140.113 29.9924 140.328 29.8428 140.592 29.7386C140.857 29.6326 141.164 29.5795 141.512 29.5795C141.754 29.5795 141.987 29.608 142.208 29.6648C142.432 29.7216 142.629 29.8097 142.802 29.929C142.976 30.0483 143.113 30.2017 143.214 30.3892C143.314 30.5748 143.364 30.7973 143.364 31.0568V34H142.217V33.3949H142.183C142.112 33.5312 142.019 33.6515 141.901 33.7557C141.784 33.858 141.643 33.9384 141.478 33.9972C141.313 34.054 141.123 34.0824 140.907 34.0824ZM141.254 33.2472C141.432 33.2472 141.589 33.2121 141.725 33.142C141.862 33.0701 141.969 32.9735 142.046 32.8523C142.124 32.7311 142.163 32.5937 142.163 32.4403V31.9773C142.125 32.0019 142.073 32.0246 142.006 32.0455C141.942 32.0644 141.869 32.0824 141.788 32.0994C141.706 32.1146 141.625 32.1288 141.543 32.142C141.462 32.1534 141.388 32.1638 141.322 32.1733C141.18 32.1941 141.056 32.2273 140.95 32.2727C140.844 32.3182 140.761 32.3797 140.702 32.4574C140.644 32.5331 140.614 32.6278 140.614 32.7415C140.614 32.9062 140.674 33.0322 140.793 33.1193C140.915 33.2045 141.068 33.2472 141.254 33.2472ZM145.513 28.1818V34H144.303V28.1818H145.513Z" fill="#3C3C3C"/>
<path d="M127.121 8.07955C126.821 8.07765 126.532 8.02746 126.254 7.92898C125.978 7.83049 125.729 7.67045 125.51 7.44886C125.29 7.22727 125.116 6.93371 124.987 6.56818C124.86 6.20265 124.797 5.75379 124.797 5.22159C124.799 4.73295 124.854 4.2964 124.964 3.91193C125.076 3.52557 125.235 3.19792 125.442 2.92898C125.65 2.66004 125.899 2.45549 126.189 2.31534C126.479 2.1733 126.803 2.10227 127.163 2.10227C127.551 2.10227 127.894 2.17803 128.192 2.32955C128.489 2.47917 128.728 2.68277 128.907 2.94034C129.089 3.19792 129.199 3.48674 129.237 3.80682H128.024C127.977 3.60417 127.877 3.44508 127.726 3.32955C127.574 3.21402 127.387 3.15625 127.163 3.15625C126.784 3.15625 126.497 3.32102 126.3 3.65057C126.104 3.98011 126.005 4.42803 126.001 4.99432H126.041C126.128 4.82197 126.246 4.67519 126.393 4.55398C126.543 4.43087 126.712 4.33712 126.902 4.27273C127.093 4.20644 127.295 4.1733 127.507 4.1733C127.852 4.1733 128.158 4.25473 128.427 4.41761C128.696 4.5786 128.908 4.80019 129.064 5.08239C129.219 5.36458 129.297 5.6875 129.297 6.05114C129.297 6.44508 129.205 6.79545 129.021 7.10227C128.839 7.40909 128.585 7.64962 128.257 7.82386C127.931 7.99621 127.552 8.08144 127.121 8.07955ZM127.115 7.11364C127.304 7.11364 127.474 7.06818 127.623 6.97727C127.773 6.88636 127.89 6.76326 127.976 6.60795C128.061 6.45265 128.104 6.27841 128.104 6.08523C128.104 5.89205 128.061 5.71875 127.976 5.56534C127.892 5.41193 127.777 5.28977 127.629 5.19886C127.481 5.10795 127.313 5.0625 127.123 5.0625C126.981 5.0625 126.85 5.08902 126.729 5.14205C126.609 5.19508 126.504 5.26894 126.413 5.36364C126.324 5.45833 126.254 5.56818 126.203 5.69318C126.152 5.81629 126.126 5.94792 126.126 6.08807C126.126 6.27557 126.169 6.44697 126.254 6.60227C126.341 6.75758 126.459 6.88163 126.606 6.97443C126.756 7.06723 126.925 7.11364 127.115 7.11364ZM132.45 8.12784C131.961 8.12595 131.541 8.00568 131.189 7.76705C130.838 7.52841 130.568 7.18277 130.379 6.73011C130.192 6.27746 130.099 5.73295 130.101 5.09659C130.101 4.46212 130.194 3.9214 130.382 3.47443C130.571 3.02746 130.841 2.6875 131.192 2.45455C131.544 2.2197 131.963 2.10227 132.45 2.10227C132.937 2.10227 133.355 2.2197 133.706 2.45455C134.058 2.68939 134.329 3.0303 134.518 3.47727C134.708 3.92235 134.801 4.46212 134.8 5.09659C134.8 5.73485 134.705 6.2803 134.515 6.73295C134.328 7.18561 134.059 7.53125 133.709 7.76989C133.358 8.00852 132.939 8.12784 132.45 8.12784ZM132.45 7.10795C132.783 7.10795 133.05 6.94034 133.248 6.60511C133.447 6.26989 133.546 5.76705 133.544 5.09659C133.544 4.6553 133.498 4.28788 133.407 3.99432C133.318 3.70076 133.192 3.48011 133.027 3.33239C132.864 3.18466 132.672 3.1108 132.45 3.1108C132.119 3.1108 131.854 3.27652 131.655 3.60795C131.456 3.93939 131.355 4.43561 131.354 5.09659C131.354 5.54356 131.398 5.91667 131.487 6.21591C131.578 6.51326 131.706 6.73674 131.871 6.88636C132.035 7.03409 132.229 7.10795 132.45 7.10795ZM137.415 7.11364V3.09091H138.432V7.11364H137.415ZM135.912 5.6108V4.59375H139.935V5.6108H135.912Z" fill="#3C3C3C"/>
<path d="M34.9077 40V34.1818H36.8736C37.3281 34.1818 37.7012 34.2595 37.9929 34.4148C38.2846 34.5682 38.5005 34.7794 38.6406 35.0483C38.7808 35.3172 38.8509 35.6231 38.8509 35.9659C38.8509 36.3087 38.7808 36.6127 38.6406 36.8778C38.5005 37.143 38.2855 37.3513 37.9957 37.5028C37.706 37.6525 37.3357 37.7273 36.8849 37.7273H35.294V37.0909H36.8622C37.1728 37.0909 37.4228 37.0455 37.6122 36.9545C37.8035 36.8636 37.9418 36.7348 38.027 36.5682C38.1141 36.3996 38.1577 36.1989 38.1577 35.9659C38.1577 35.733 38.1141 35.5294 38.027 35.3551C37.9399 35.1809 37.8007 35.0464 37.6094 34.9517C37.4181 34.8551 37.1652 34.8068 36.8509 34.8068H35.6122V40H34.9077ZM37.6463 37.3864L39.0781 40H38.2599L36.8509 37.3864H37.6463ZM41.218 40.1023C40.9415 40.1023 40.6906 40.0502 40.4652 39.946C40.2398 39.84 40.0608 39.6875 39.9283 39.4886C39.7957 39.2879 39.7294 39.0455 39.7294 38.7614C39.7294 38.5114 39.7786 38.3087 39.8771 38.1534C39.9756 37.9962 40.1072 37.8731 40.272 37.7841C40.4368 37.6951 40.6186 37.6288 40.8175 37.5852C41.0182 37.5398 41.2199 37.5038 41.4226 37.4773C41.6877 37.4432 41.9027 37.4176 42.0675 37.4006C42.2341 37.3816 42.3554 37.3504 42.4311 37.3068C42.5088 37.2633 42.5476 37.1875 42.5476 37.0795V37.0568C42.5476 36.7765 42.4709 36.5587 42.3175 36.4034C42.166 36.2481 41.9358 36.1705 41.6271 36.1705C41.3071 36.1705 41.0561 36.2405 40.8743 36.3807C40.6925 36.5208 40.5646 36.6705 40.4908 36.8295L39.8544 36.6023C39.968 36.3371 40.1196 36.1307 40.3089 35.983C40.5002 35.8333 40.7086 35.7292 40.9339 35.6705C41.1612 35.6098 41.3847 35.5795 41.6044 35.5795C41.7446 35.5795 41.9055 35.5966 42.0874 35.6307C42.2711 35.6629 42.4482 35.7301 42.6186 35.8324C42.791 35.9347 42.9339 36.089 43.0476 36.2955C43.1612 36.5019 43.218 36.7784 43.218 37.125V40H42.5476V39.4091H42.5135C42.468 39.5038 42.3923 39.6051 42.2862 39.7131C42.1802 39.821 42.0391 39.9129 41.8629 39.9886C41.6868 40.0644 41.4718 40.1023 41.218 40.1023ZM41.3203 39.5C41.5855 39.5 41.8089 39.4479 41.9908 39.3438C42.1745 39.2396 42.3127 39.1051 42.4055 38.9403C42.5002 38.7756 42.5476 38.6023 42.5476 38.4205V37.8068C42.5192 37.8409 42.4567 37.8722 42.3601 37.9006C42.2654 37.9271 42.1555 37.9508 42.0305 37.9716C41.9074 37.9905 41.7872 38.0076 41.6697 38.0227C41.5542 38.036 41.4605 38.0473 41.3885 38.0568C41.2143 38.0795 41.0514 38.1165 40.8999 38.1676C40.7502 38.2169 40.629 38.2917 40.5362 38.392C40.4453 38.4905 40.3999 38.625 40.3999 38.7955C40.3999 39.0284 40.486 39.2045 40.6584 39.3239C40.8326 39.4413 41.0533 39.5 41.3203 39.5ZM44.4418 40V35.6364H45.1122V40H44.4418ZM44.7827 34.9091C44.652 34.9091 44.5393 34.8646 44.4446 34.7756C44.3518 34.6866 44.3054 34.5795 44.3054 34.4545C44.3054 34.3295 44.3518 34.2225 44.4446 34.1335C44.5393 34.0445 44.652 34 44.7827 34C44.9134 34 45.0251 34.0445 45.1179 34.1335C45.2126 34.2225 45.2599 34.3295 45.2599 34.4545C45.2599 34.5795 45.2126 34.6866 45.1179 34.7756C45.0251 34.8646 44.9134 34.9091 44.7827 34.9091ZM47.0107 37.375V40H46.3402V35.6364H46.9879V36.3182H47.0447C47.147 36.0966 47.3023 35.9186 47.5107 35.7841C47.719 35.6477 47.9879 35.5795 48.3175 35.5795C48.6129 35.5795 48.8714 35.6402 49.093 35.7614C49.3146 35.8807 49.487 36.0625 49.6101 36.3068C49.7332 36.5492 49.7947 36.8561 49.7947 37.2273V40H49.1243V37.2727C49.1243 36.9299 49.0353 36.6629 48.8572 36.4716C48.6792 36.2784 48.4349 36.1818 48.1243 36.1818C47.9103 36.1818 47.719 36.2282 47.5504 36.321C47.3838 36.4138 47.2521 36.5492 47.1555 36.7273C47.0589 36.9053 47.0107 37.1212 47.0107 37.375ZM56.5426 35.6364C56.5085 35.3485 56.3703 35.125 56.1278 34.9659C55.8854 34.8068 55.5881 34.7273 55.2358 34.7273C54.9782 34.7273 54.7528 34.7689 54.5597 34.8523C54.3684 34.9356 54.2188 35.0502 54.1108 35.196C54.0047 35.3419 53.9517 35.5076 53.9517 35.6932C53.9517 35.8485 53.9886 35.982 54.0625 36.0938C54.1383 36.2036 54.2348 36.2955 54.3523 36.3693C54.4697 36.4413 54.5928 36.5009 54.7216 36.5483C54.8504 36.5937 54.9688 36.6307 55.0767 36.6591L55.6676 36.8182C55.8191 36.858 55.9877 36.9129 56.1733 36.983C56.3608 37.053 56.5398 37.1487 56.7102 37.2699C56.8826 37.3892 57.0246 37.5426 57.1364 37.7301C57.2481 37.9176 57.304 38.1477 57.304 38.4205C57.304 38.7348 57.2216 39.0189 57.0568 39.2727C56.8939 39.5265 56.6553 39.7282 56.3409 39.8778C56.0284 40.0275 55.6487 40.1023 55.2017 40.1023C54.785 40.1023 54.4242 40.035 54.1193 39.9006C53.8163 39.7661 53.5777 39.5786 53.4034 39.3381C53.2311 39.0975 53.1335 38.8182 53.1108 38.5H53.8381C53.857 38.7197 53.9309 38.9015 54.0597 39.0455C54.1903 39.1875 54.3551 39.2936 54.554 39.3636C54.7547 39.4318 54.9706 39.4659 55.2017 39.4659C55.4706 39.4659 55.7121 39.4223 55.9261 39.3352C56.1402 39.2462 56.3097 39.1231 56.4347 38.9659C56.5597 38.8068 56.6222 38.6212 56.6222 38.4091C56.6222 38.2159 56.5682 38.0587 56.4602 37.9375C56.3523 37.8163 56.2102 37.7178 56.0341 37.642C55.858 37.5663 55.6676 37.5 55.4631 37.4432L54.7472 37.2386C54.2926 37.108 53.9328 36.9214 53.6676 36.679C53.4025 36.4366 53.2699 36.1193 53.2699 35.7273C53.2699 35.4015 53.358 35.1174 53.5341 34.875C53.7121 34.6307 53.9508 34.4413 54.25 34.3068C54.5511 34.1705 54.8873 34.1023 55.2585 34.1023C55.6335 34.1023 55.9669 34.1695 56.2585 34.304C56.5502 34.4366 56.7813 34.6184 56.9517 34.8494C57.1241 35.0805 57.215 35.3428 57.2244 35.6364H56.5426ZM60.1442 40.0909C59.7351 40.0909 59.3828 39.9943 59.0874 39.8011C58.7919 39.608 58.5646 39.3419 58.4055 39.0028C58.2464 38.6638 58.1669 38.2765 58.1669 37.8409C58.1669 37.3977 58.2483 37.0066 58.4112 36.6676C58.576 36.3267 58.8052 36.0606 59.0987 35.8693C59.3942 35.6761 59.7389 35.5795 60.1328 35.5795C60.4396 35.5795 60.7161 35.6364 60.9624 35.75C61.2086 35.8636 61.4103 36.0227 61.5675 36.2273C61.7247 36.4318 61.8222 36.6705 61.8601 36.9432H61.1896C61.1385 36.7443 61.0249 36.5682 60.8487 36.4148C60.6745 36.2595 60.4396 36.1818 60.1442 36.1818C59.8828 36.1818 59.6536 36.25 59.4567 36.3864C59.2616 36.5208 59.1091 36.7112 58.9993 36.9574C58.8913 37.2017 58.8374 37.4886 58.8374 37.8182C58.8374 38.1553 58.8904 38.4489 58.9964 38.6989C59.1044 38.9489 59.2559 39.143 59.451 39.2812C59.648 39.4195 59.879 39.4886 60.1442 39.4886C60.3184 39.4886 60.4766 39.4583 60.6186 39.3977C60.7607 39.3371 60.8809 39.25 60.9794 39.1364C61.0779 39.0227 61.148 38.8864 61.1896 38.7273H61.8601C61.8222 38.9848 61.7285 39.2169 61.5788 39.4233C61.4311 39.6278 61.2351 39.7907 60.9908 39.9119C60.7483 40.0312 60.4661 40.0909 60.1442 40.0909ZM64.1243 40.1023C63.8478 40.1023 63.5968 40.0502 63.3714 39.946C63.1461 39.84 62.9671 39.6875 62.8345 39.4886C62.7019 39.2879 62.6357 39.0455 62.6357 38.7614C62.6357 38.5114 62.6849 38.3087 62.7834 38.1534C62.8819 37.9962 63.0135 37.8731 63.1783 37.7841C63.343 37.6951 63.5249 37.6288 63.7237 37.5852C63.9245 37.5398 64.1262 37.5038 64.3288 37.4773C64.594 37.4432 64.8089 37.4176 64.9737 37.4006C65.1404 37.3816 65.2616 37.3504 65.3374 37.3068C65.415 37.2633 65.4538 37.1875 65.4538 37.0795V37.0568C65.4538 36.7765 65.3771 36.5587 65.2237 36.4034C65.0722 36.2481 64.8421 36.1705 64.5334 36.1705C64.2133 36.1705 63.9624 36.2405 63.7805 36.3807C63.5987 36.5208 63.4709 36.6705 63.397 36.8295L62.7607 36.6023C62.8743 36.3371 63.0258 36.1307 63.2152 35.983C63.4065 35.8333 63.6148 35.7292 63.8402 35.6705C64.0675 35.6098 64.291 35.5795 64.5107 35.5795C64.6508 35.5795 64.8118 35.5966 64.9936 35.6307C65.1773 35.6629 65.3544 35.7301 65.5249 35.8324C65.6972 35.9347 65.8402 36.089 65.9538 36.2955C66.0675 36.5019 66.1243 36.7784 66.1243 37.125V40H65.4538V39.4091H65.4197C65.3743 39.5038 65.2985 39.6051 65.1925 39.7131C65.0864 39.821 64.9453 39.9129 64.7692 39.9886C64.593 40.0644 64.3781 40.1023 64.1243 40.1023ZM64.2266 39.5C64.4917 39.5 64.7152 39.4479 64.897 39.3438C65.0807 39.2396 65.219 39.1051 65.3118 38.9403C65.4065 38.7756 65.4538 38.6023 65.4538 38.4205V37.8068C65.4254 37.8409 65.3629 37.8722 65.2663 37.9006C65.1716 37.9271 65.0618 37.9508 64.9368 37.9716C64.8137 37.9905 64.6934 38.0076 64.576 38.0227C64.4605 38.036 64.3667 38.0473 64.2947 38.0568C64.1205 38.0795 63.9576 38.1165 63.8061 38.1676C63.6565 38.2169 63.5353 38.2917 63.4425 38.392C63.3516 38.4905 63.3061 38.625 63.3061 38.7955C63.3061 39.0284 63.3923 39.2045 63.5646 39.3239C63.7389 39.4413 63.9595 39.5 64.2266 39.5ZM68.0185 34.1818V40H67.348V34.1818H68.0185ZM71.076 40.0909C70.6555 40.0909 70.2929 39.9981 69.9879 39.8125C69.6849 39.625 69.451 39.3636 69.2862 39.0284C69.1233 38.6913 69.0419 38.2992 69.0419 37.8523C69.0419 37.4053 69.1233 37.0114 69.2862 36.6705C69.451 36.3277 69.6802 36.0606 69.9737 35.8693C70.2692 35.6761 70.6139 35.5795 71.0078 35.5795C71.2351 35.5795 71.4595 35.6174 71.6811 35.6932C71.9027 35.7689 72.1044 35.892 72.2862 36.0625C72.468 36.2311 72.6129 36.4545 72.7209 36.733C72.8288 37.0114 72.8828 37.3542 72.8828 37.7614V38.0455H69.5192V37.4659H72.201C72.201 37.2197 72.1518 37 72.0533 36.8068C71.9567 36.6136 71.8184 36.4612 71.6385 36.3494C71.4605 36.2377 71.2502 36.1818 71.0078 36.1818C70.7408 36.1818 70.5097 36.2481 70.3146 36.3807C70.1214 36.5114 69.9728 36.6818 69.8686 36.892C69.7644 37.1023 69.7124 37.3277 69.7124 37.5682V37.9545C69.7124 38.2841 69.7692 38.5634 69.8828 38.7926C69.9983 39.0199 70.1584 39.1932 70.3629 39.3125C70.5675 39.4299 70.8052 39.4886 71.076 39.4886C71.2521 39.4886 71.4112 39.464 71.5533 39.4148C71.6972 39.3636 71.8213 39.2879 71.9254 39.1875C72.0296 39.0852 72.1101 38.9583 72.1669 38.8068L72.8146 38.9886C72.7464 39.2083 72.6319 39.4015 72.4709 39.5682C72.3099 39.733 72.111 39.8617 71.8743 39.9545C71.6375 40.0455 71.3714 40.0909 71.076 40.0909ZM76.3913 37.5455C76.3913 36.8295 76.4841 36.1714 76.6697 35.571C76.8572 34.9687 77.1243 34.4148 77.4709 33.9091H78.0618C77.9254 34.0966 77.7976 34.3277 77.6783 34.6023C77.5608 34.875 77.4576 35.1752 77.3686 35.5028C77.2796 35.8286 77.2095 36.1657 77.1584 36.5142C77.1091 36.8627 77.0845 37.2064 77.0845 37.5455C77.0845 37.9962 77.1281 38.4536 77.2152 38.9176C77.3023 39.3816 77.4197 39.8125 77.5675 40.2102C77.7152 40.608 77.88 40.9318 78.0618 41.1818H77.4709C77.1243 40.6761 76.8572 40.1231 76.6697 39.5227C76.4841 38.9205 76.3913 38.2614 76.3913 37.5455ZM79.0511 40V35.6364H79.6989V36.3182H79.7557C79.8466 36.0852 79.9934 35.9044 80.196 35.7756C80.3987 35.6449 80.642 35.5795 80.9261 35.5795C81.214 35.5795 81.4536 35.6449 81.6449 35.7756C81.8381 35.9044 81.9886 36.0852 82.0966 36.3182H82.142C82.2538 36.0928 82.4214 35.9138 82.6449 35.7812C82.8684 35.6468 83.1364 35.5795 83.4489 35.5795C83.839 35.5795 84.1581 35.7017 84.4062 35.946C84.6544 36.1884 84.7784 36.5663 84.7784 37.0795V40H84.108V37.0795C84.108 36.7576 84.0199 36.5275 83.8438 36.3892C83.6676 36.2509 83.4602 36.1818 83.2216 36.1818C82.9148 36.1818 82.6771 36.2746 82.5085 36.4602C82.34 36.6439 82.2557 36.8769 82.2557 37.1591V40H81.5739V37.0114C81.5739 36.7633 81.4934 36.5634 81.3324 36.4119C81.1714 36.2585 80.964 36.1818 80.7102 36.1818C80.536 36.1818 80.3731 36.2282 80.2216 36.321C80.072 36.4138 79.9508 36.5426 79.858 36.7074C79.767 36.8703 79.7216 37.0587 79.7216 37.2727V40H79.0511ZM86.0043 40V35.6364H86.652V36.3182H86.7088C86.7997 36.0852 86.9465 35.9044 87.1491 35.7756C87.3518 35.6449 87.5952 35.5795 87.8793 35.5795C88.1671 35.5795 88.4067 35.6449 88.598 35.7756C88.7912 35.9044 88.9418 36.0852 89.0497 36.3182H89.0952C89.2069 36.0928 89.3745 35.9138 89.598 35.7812C89.8215 35.6468 90.0895 35.5795 90.402 35.5795C90.7921 35.5795 91.1113 35.7017 91.3594 35.946C91.6075 36.1884 91.7315 36.5663 91.7315 37.0795V40H91.0611V37.0795C91.0611 36.7576 90.973 36.5275 90.7969 36.3892C90.6207 36.2509 90.4134 36.1818 90.1747 36.1818C89.8679 36.1818 89.6302 36.2746 89.4616 36.4602C89.2931 36.6439 89.2088 36.8769 89.2088 37.1591V40H88.527V37.0114C88.527 36.7633 88.4465 36.5634 88.2855 36.4119C88.1245 36.2585 87.9171 36.1818 87.6634 36.1818C87.4891 36.1818 87.3262 36.2282 87.1747 36.321C87.0251 36.4138 86.9039 36.5426 86.8111 36.7074C86.7202 36.8703 86.6747 37.0587 86.6747 37.2727V40H86.0043ZM95.0142 33.9091L93.1392 40.875H92.5256L94.4006 33.9091H95.0142ZM96.4794 37.375V40H95.8089V34.1818H96.4794V36.3182H96.5362C96.6385 36.0928 96.7919 35.9138 96.9964 35.7812C97.2029 35.6468 97.4775 35.5795 97.8203 35.5795C98.1177 35.5795 98.3781 35.6392 98.6016 35.7585C98.825 35.8759 98.9983 36.0568 99.1214 36.3011C99.2464 36.5436 99.3089 36.8523 99.3089 37.2273V40H98.6385V37.2727C98.6385 36.9261 98.5485 36.6581 98.3686 36.4688C98.1906 36.2775 97.9434 36.1818 97.6271 36.1818C97.4074 36.1818 97.2105 36.2282 97.0362 36.321C96.8639 36.4138 96.7275 36.5492 96.6271 36.7273C96.5286 36.9053 96.4794 37.1212 96.4794 37.375ZM100.536 40V35.6364H101.183V36.2955H101.229C101.308 36.0795 101.452 35.9044 101.661 35.7699C101.869 35.6354 102.104 35.5682 102.365 35.5682C102.414 35.5682 102.476 35.5691 102.55 35.571C102.624 35.5729 102.679 35.5758 102.717 35.5795V36.2614C102.695 36.2557 102.643 36.2472 102.561 36.2358C102.482 36.2225 102.397 36.2159 102.308 36.2159C102.096 36.2159 101.907 36.2604 101.74 36.3494C101.575 36.4366 101.445 36.5578 101.348 36.7131C101.253 36.8665 101.206 37.0417 101.206 37.2386V40H100.536ZM104.944 37.5455C104.944 38.2614 104.85 38.9205 104.663 39.5227C104.477 40.1231 104.211 40.6761 103.864 41.1818H103.273C103.41 40.9943 103.537 40.7633 103.654 40.4886C103.773 40.2159 103.878 39.9167 103.967 39.5909C104.056 39.2633 104.125 38.9252 104.174 38.5767C104.225 38.2263 104.251 37.8826 104.251 37.5455C104.251 37.0947 104.207 36.6373 104.12 36.1733C104.033 35.7093 103.915 35.2784 103.768 34.8807C103.62 34.483 103.455 34.1591 103.273 33.9091H103.864C104.211 34.4148 104.477 34.9687 104.663 35.571C104.85 36.1714 104.944 36.8295 104.944 37.5455Z" fill="#888888"/>
</svg>
