<svg width="55" height="62" viewBox="0 0 55 62" fill="none" xmlns="http://www.w3.org/2000/svg">
<path d="M46.1249 19.0377C46.2109 18.5139 46.2499 18.0115 46.2499 17.5092C46.2499 11.5747 40.9919 6.74512 34.5309 6.74512C29.6012 6.74512 25.2654 9.56524 23.5699 13.7272C22.4762 12.9307 21.1168 12.4858 19.6871 12.4858C16.2418 12.4858 13.4371 15.062 13.4371 18.2266V18.2624C13.1793 18.2409 12.9137 18.2266 12.6559 18.2266C7.91369 18.2266 4.06189 21.7643 4.06189 26.1203C4.06189 30.4763 7.91344 34.014 12.6559 34.014H30.6869C31.0931 31.4594 33.4838 28.5388 34.265 27.6418C34.7025 27.1395 35.3665 26.8525 36.0931 26.8525C36.8196 26.8525 37.4837 27.1395 37.9212 27.649C38.7024 28.5388 41.0931 31.4594 41.4993 34.0139H42.343C47.0852 34.0139 50.937 30.4761 50.937 26.1201C50.937 23.0847 49.0698 20.3651 46.1245 19.0374L46.1249 19.0377ZM41.5624 16.7701C41.5077 16.7845 41.4452 16.7916 41.3906 16.7916C41.0312 16.7916 40.7109 16.5692 40.6328 16.2319C40.0937 14.0935 38.25 12.3999 35.9218 11.9048C35.4999 11.8187 35.2343 11.4312 35.3359 11.0508C35.4296 10.6633 35.8515 10.4194 36.2656 10.5126C39.1796 11.1226 41.4846 13.2395 42.1486 15.9163C42.2501 16.3038 41.9843 16.684 41.5624 16.7701Z" fill="white"/>
<path d="M35.4845 28.5459C35.1486 28.9334 32.1876 32.3994 32.1876 34.7317C32.1876 36.7122 33.9376 38.3196 36.0939 38.3196C38.2501 38.3196 40.0001 36.7122 40.0001 34.7317C40.0001 32.3923 37.0392 28.9335 36.7032 28.5459C36.4063 28.2087 35.7814 28.2087 35.4845 28.5459ZM36.0939 36.8842C34.8049 36.8842 33.7502 35.9155 33.7502 34.7315C33.7502 33.4828 35.1252 31.4305 36.0939 30.1891C37.0627 31.4377 38.4377 33.4829 38.4377 34.7315C38.4377 35.98 37.383 36.8842 36.0939 36.8842Z" fill="white"/>
<path d="M31.953 41.4766C31.7343 41.7421 29.8436 44.1102 29.8436 45.7319C29.8436 47.1814 31.0702 48.3655 32.578 48.3655C34.0859 48.3655 35.3124 47.1887 35.3124 45.7319C35.3124 44.103 33.4218 41.7421 33.203 41.4766C32.9062 41.1178 32.2499 41.1178 31.953 41.4766ZM32.578 46.9303C31.9296 46.9303 31.4061 46.3921 31.4061 45.7319C31.4061 45.0717 31.9921 44.0384 32.578 43.1773C33.164 44.0384 33.7499 45.1004 33.7499 45.7319C33.7499 46.3634 33.2265 46.9303 32.578 46.9303Z" fill="white"/>
<path d="M14.7655 40.042C14.5468 40.3076 12.6561 42.6756 12.6561 44.2974C12.6561 45.7469 13.8827 46.9309 15.3905 46.9309C16.8984 46.9309 18.1249 45.7541 18.1249 44.2974C18.1249 42.6684 16.2343 40.3075 16.0155 40.042C15.7187 39.6833 15.0624 39.6833 14.7655 40.042ZM15.3905 45.4958C14.7421 45.4958 14.2186 44.9575 14.2186 44.2974C14.2186 43.6372 14.8046 42.6038 15.3905 41.7427C15.9765 42.6038 16.5624 43.6659 16.5624 44.2974C16.5624 44.9288 16.039 45.4958 15.3905 45.4958Z" fill="white"/>
<path d="M23.3595 35.7359C23.1408 36.0014 21.2501 38.3695 21.2501 39.9912C21.2501 41.4407 22.4767 42.6248 23.9845 42.6248C25.4924 42.6248 26.7189 41.4479 26.7189 39.9912C26.7189 38.3623 24.8283 36.0014 24.6095 35.7359C24.3126 35.3771 23.6564 35.3771 23.3595 35.7359ZM23.9845 41.1896C23.3361 41.1896 22.8126 40.6514 22.8126 39.9912C22.8126 39.331 23.3986 38.2977 23.9845 37.4366C24.5705 38.2977 25.1564 39.3597 25.1564 39.9912C25.1564 40.6227 24.633 41.1896 23.9845 41.1896Z" fill="white"/>
</svg>
