<?xml version="1.0" encoding="UTF-8" standalone="no"?>
<svg
   data-name="Layer 1"
   viewBox="0 0 100 125"
   x="0px"
   y="0px"
   version="1.1"
   id="svg12"
   sodipodi:docname="fire-station.svg"
   inkscape:version="1.1 (c68e22c387, 2021-05-23)"
   xmlns:inkscape="http://www.inkscape.org/namespaces/inkscape"
   xmlns:sodipodi="http://sodipodi.sourceforge.net/DTD/sodipodi-0.dtd"
   xmlns="http://www.w3.org/2000/svg"
   xmlns:svg="http://www.w3.org/2000/svg"
   xmlns:rdf="http://www.w3.org/1999/02/22-rdf-syntax-ns#"
   xmlns:cc="http://creativecommons.org/ns#"
   xmlns:dc="http://purl.org/dc/elements/1.1/">
  <defs
     id="defs16" />
  <sodipodi:namedview
     id="namedview14"
     pagecolor="#ffffff"
     bordercolor="#666666"
     borderopacity="1.0"
     inkscape:pageshadow="2"
     inkscape:pageopacity="0.0"
     inkscape:pagecheckerboard="0"
     showgrid="false"
     inkscape:zoom="3.328"
     inkscape:cx="8.8641827"
     inkscape:cy="81.280048"
     inkscape:window-width="1920"
     inkscape:window-height="1017"
     inkscape:window-x="-8"
     inkscape:window-y="-8"
     inkscape:window-maximized="1"
     inkscape:current-layer="svg12" />
  <title
     id="title2">medical &amp;amp; health care icon set</title>
  <metadata
     id="metadata1007">
    <rdf:RDF>
      <cc:Work
         rdf:about="">
        <dc:title>medical &amp;amp; health care icon set</dc:title>
      </cc:Work>
    </rdf:RDF>
  </metadata>
  <g
     id="g1654"
     transform="matrix(4.2191233,0,0,4.2191233,-13.096707,-0.885653)"
     style="fill:#0066ff;fill-opacity:1">
    <g
       id="g1652"
       style="fill:#0066ff;fill-opacity:1">
      <path
         d="m 17.8,26.4 c 0,0 7.5,-7.2 -0.1,-14.5 1.2,6.5 -4.1,8.7 -4.1,8.7 -2.9,-1.3 -2.9,-5.2 -2.9,-5.2 0,0 -1.9,3 -1.2,6.5 0.6,2.8 4.1,5 4.1,5 0,0 -7.6,0.3 -9.4,-7.3 -1.2,-5.2 1.2,-9.4 1.2,-9.4 0,0 0,4.7 1.8,5.9 0,0 0,-7 4.1,-10 0,0 -1.8,7.1 2.4,6.5 3.7,-0.5 0.6,-9.4 0.6,-9.4 0,0 3.7,1.4 7.1,8.2 2.4,0.3 2.9,-4.1 2.9,-4.1 0,0 6.9,16.2 -6.5,19.1 z"
         id="path1650"
         style="fill:#0066ff;fill-opacity:1" />
    </g>
  </g>
</svg>
