<?xml version="1.0" encoding="UTF-8" standalone="no"?>
<svg
   data-name="Layer 1"
   viewBox="0 0 100 125"
   x="0px"
   y="0px"
   version="1.1"
   id="svg12"
   sodipodi:docname="police-station.svg"
   inkscape:version="1.1 (c68e22c387, 2021-05-23)"
   xmlns:inkscape="http://www.inkscape.org/namespaces/inkscape"
   xmlns:sodipodi="http://sodipodi.sourceforge.net/DTD/sodipodi-0.dtd"
   xmlns="http://www.w3.org/2000/svg"
   xmlns:svg="http://www.w3.org/2000/svg"
   xmlns:rdf="http://www.w3.org/1999/02/22-rdf-syntax-ns#"
   xmlns:cc="http://creativecommons.org/ns#"
   xmlns:dc="http://purl.org/dc/elements/1.1/">
  <defs
     id="defs16" />
  <sodipodi:namedview
     id="namedview14"
     pagecolor="#ffffff"
     bordercolor="#666666"
     borderopacity="1.0"
     inkscape:pageshadow="2"
     inkscape:pageopacity="0.0"
     inkscape:pagecheckerboard="0"
     showgrid="false"
     inkscape:zoom="3.328"
     inkscape:cx="8.8641827"
     inkscape:cy="81.280048"
     inkscape:window-width="1920"
     inkscape:window-height="1017"
     inkscape:window-x="-8"
     inkscape:window-y="-8"
     inkscape:window-maximized="1"
     inkscape:current-layer="svg12" />
  <title
     id="title2">medical &amp;amp; health care icon set</title>
  <metadata
     id="metadata1007">
    <rdf:RDF>
      <cc:Work
         rdf:about="">
        <dc:title>medical &amp;amp; health care icon set</dc:title>
      </cc:Work>
    </rdf:RDF>
  </metadata>
  <g
     transform="matrix(1.2102872,0,0,1.2102872,-10.456235,-1150.3212)"
     id="g1371"
     style="fill:#0066ff;fill-opacity:1">
    <path
       style="color:#000000;text-indent:0;text-transform:none;direction:ltr;baseline-shift:baseline;enable-background:accumulate;fill:#0066ff;fill-opacity:1"
       d="m 50.004806,961.04968 c -13.137,9.7404 -22.079,9.9327 -37.406,11.0313 -2.7659999,19.5045 -1.741,34.85422 4.062,46.50002 5.85,11.7414 16.533,19.9123 33.312,25.0937 16.796,-5.1809 27.49,-13.3453 33.344,-25.0937 5.802,-11.6458 6.859,-26.99572 4.094,-46.50002 -15.342,-1.1002 -24.269,-1.2975 -37.406,-11.0313 z m 0,16.1563 a 1.10011,1.10011 0 0 1 0.968,0.625 l 6.719,13.5625 15.125,2.1875 a 1.10011,1.10011 0 0 1 0.594,1.875 l -10.906,10.53132 2.594,14.9062 a 1.10011,1.10011 0 0 1 -1.594,1.1562 l -13.5,-7.0312 -13.5,7.0312 a 1.10011,1.10011 0 0 1 -1.594,-1.1562 l 2.562,-14.9375 -10.906,-10.50002 a 1.10011,1.10011 0 0 1 0.594,-1.875 l 15.125,-2.1875 6.719,-13.5625 a 1.10011,1.10011 0 0 1 0.781,-0.5937 1.10011,1.10011 0 0 1 0.219,-0.031 z"
       fill="#000000"
       fill-opacity="1"
       fill-rule="nonzero"
       stroke="none"
       marker="none"
       visibility="visible"
       display="inline"
       overflow="visible"
       id="path1369" />
  </g>
</svg>
