<svg xmlns="http://www.w3.org/2000/svg" version="1.1" viewBox="-5.0 -10.0 110.0 135.0">
 <path d="m45.77 20.062v0.003906l8.457 0.003906v0.003907c1.5156 0.003906 2.8203 0.89453 3.4375 2.1758v0.003906l-15.32-0.003906h-0.007812c0.62109-1.2852 1.9258-2.1719 3.4336-2.1875zm8.4609-3.1953v0.003906l-8.4648 0.003906v0.003906c-3.3164 0.011719-6.0898 2.2812-6.8242 5.3711v0.003906l-15.812-0.003906c-0.42578 0-0.83203 0.16797-1.1328 0.46875-0.29688 0.30078-0.46484 0.70703-0.46484 1.1289v10.297c0 0.42578 0.16797 0.83203 0.46484 1.1289 0.28516 0.28516 0.66797 0.45312 1.0703 0.46875h53.805c0.88281 0 1.5977-0.71484 1.5977-1.5977v-10.297c0-0.87891-0.71484-1.5938-1.5977-1.5938l-15.812-0.003906-0.003906 0.003906c-0.73047-3.0938-3.5078-5.3633-6.8242-5.3867zm-19.668 27.961v0.003906h5.0781 0.003906c0.87891 0 1.5938 0.71484 1.5938 1.5938v24.195c0 0.88281-0.71484 1.5977-1.5977 1.5977l-5.0781 0.003906v-0.003906c-0.42578 0-0.83203-0.16797-1.1289-0.46484-0.30078-0.30078-0.46875-0.70703-0.46875-1.1289v-24.199c0-0.42578 0.16797-0.83203 0.46875-1.1289 0.29297-0.29688 0.69141-0.46094 1.1055-0.46094h0.023438zm12.898 0v0.003906h5.0781c0.88281 0 1.5977 0.71484 1.5977 1.5938v24.195c0 0.88281-0.71484 1.5977-1.5977 1.5977l-5.0781 0.003906v-0.003906c-0.42578 0-0.83203-0.16797-1.1328-0.46484-0.29688-0.30078-0.46484-0.70703-0.46484-1.1289v-24.199c0-0.42578 0.16797-0.83203 0.46484-1.1289s0.69531-0.46094 1.1094-0.46094h0.023438zm12.898 0v0.003906h5.0781c0.88281 0 1.5938 0.71484 1.5938 1.5938v24.195c0 0.88281-0.71484 1.5977-1.5938 1.5977l-5.0781 0.003906-0.003906-0.003906c-0.42188 0-0.82812-0.16797-1.1289-0.46484-0.29687-0.30078-0.46484-0.70703-0.46484-1.1289v-24.199c0-0.42578 0.16797-0.83203 0.46484-1.1289 0.29688-0.29688 0.69141-0.46094 1.1094-0.46094h0.019531v-0.003907zm-35.48-5.1133v36.535c0.074219 3.8203 3.1797 6.8477 7.0117 6.8711h36.355c3.8203-0.070313 6.8438-3.1797 6.8711-7.0117v-36.395z"/>
</svg>