<?xml version="1.0" encoding="UTF-8"?>
<svg version="1.1" xmlns="http://www.w3.org/2000/svg" width="512" height="512">
<path d="M0 0 C0.83015625 0.40089844 1.6603125 0.80179688 2.515625 1.21484375 C9.30706891 4.89888172 14.75119647 10.06058637 20.29150391 15.36816406 C22.77074379 17.73616055 25.278215 20.07359388 27.78295898 22.41455078 C29.83201399 24.33074874 31.87738107 26.25081214 33.921875 28.171875 C37.79504956 31.80964294 41.67695002 35.43795783 45.5625 39.0625 C46.17786621 39.63661621 46.79323242 40.21073242 47.42724609 40.80224609 C49.28468906 42.53498269 51.14231135 44.26752681 53 46 C61.35002535 53.78720111 69.69214252 61.58261804 78.01928711 69.39428711 C82.50665618 73.6028632 87.00088588 77.80398409 91.5 82 C96.67405413 86.82548627 101.84003437 91.6594519 107 96.5 C114.65426685 103.67998576 122.32493235 110.84226182 130 118 C138.34241504 125.78010376 146.68158222 133.56353259 154.99511719 141.37451172 C158.37314546 144.54648192 161.76076364 147.70702564 165.16796875 150.84765625 C165.84279297 151.4715625 166.51761719 152.09546875 167.21289062 152.73828125 C168.48610565 153.9145254 169.76195701 155.08792538 171.04101562 156.2578125 C179.3495357 163.94574078 185.30845592 171.72531316 186.03125 183.3984375 C185.89680083 194.59133131 181.9571109 205.0428891 174 213 C162.09841355 221.86445962 153.32078149 220 137 220 C137 252.01 137 284.02 137 317 C143.93 313.7 150.86 310.4 158 307 C161.89974079 305.63378844 165.48001583 304.41808728 169.4375 303.4375 C170.29408203 303.20482422 171.15066406 302.97214844 172.03320312 302.73242188 C180.09491302 300.58138559 187.66535313 299.77040431 196 299.6875 C197.45792969 299.64399414 197.45792969 299.64399414 198.9453125 299.59960938 C204.84252974 299.54738606 208.3628669 299.97379079 213 304 C216.62833663 307.81930172 217.31000458 310.88279006 217.5 316 C217.31000458 321.11720994 216.62833663 324.18069828 213 328 C207.60472935 332.58121697 202.46092769 332.83211136 195.5625 333.4375 C179.49283438 335.20383217 167.01635076 340.33083814 152.56005859 347.40380859 C123.58509493 361.53974791 91.04299237 370.59323943 59 361 C57.89785156 360.70609375 56.79570312 360.4121875 55.66015625 360.109375 C46.075572 357.27106718 37.3100583 352.90202527 28.35131836 348.52587891 C2.56752952 335.94091116 -21.81795277 328.31264547 -50.08508301 337.80815125 C-56.50478154 340.0642051 -62.53667759 342.95392749 -68.61233521 346.01889038 C-98.17491992 360.89780694 -132.01893908 371.13905406 -165 361 C-166.87365234 360.44892578 -166.87365234 360.44892578 -168.78515625 359.88671875 C-178.92671137 356.69421176 -188.35536041 352.0624075 -197.89086914 347.40478516 C-213.71129586 339.68520122 -228.60989868 334.01694879 -246.32714844 332.90917969 C-252.88422161 332.38929551 -256.77198133 330.34528281 -261.375 325.5 C-263.77303575 320.33499991 -263.75381535 315.5997712 -263 310 C-260.69481388 305.03498375 -257.78536128 302.56932149 -253 300 C-249.57118864 299.41580468 -246.22112458 299.43075814 -242.75 299.5 C-241.77853027 299.51208496 -240.80706055 299.52416992 -239.80615234 299.53662109 C-219.02022158 300.09748431 -201.41913625 307.79043187 -183 317 C-183 284.99 -183 252.98 -183 220 C-190.59 220 -198.18 220 -206 220 C-219.18398855 214.72640458 -224.74714143 209.72081959 -230.3125 197 C-232.63075506 186.88397793 -232.65707381 177.30569552 -227.5625 168 C-222.13757769 159.65702658 -214.34230557 153.02391938 -206.828125 146.609375 C-204.35828108 144.43506796 -202.08207561 142.09263481 -199.77734375 139.74609375 C-197.93406426 137.93522357 -196.02177201 136.24678646 -194.0625 134.5625 C-191.25423653 132.14382221 -188.60029407 129.64100317 -186 127 C-182.7784145 123.72797872 -179.41407855 120.70683945 -175.93359375 117.71484375 C-173.43568444 115.4995262 -171.11975011 113.1310183 -168.78125 110.75 C-166.28103815 108.29365151 -163.62319484 106.03690632 -160.96875 103.75 C-159.06976929 102.06201714 -157.27994012 100.31230266 -155.5 98.5 C-153.10946833 96.06610268 -150.64953738 93.78644441 -148.0625 91.5625 C-145.25423653 89.14382221 -142.60029407 86.64100317 -140 84 C-136.7784145 80.72797872 -133.41407855 77.70683945 -129.93359375 74.71484375 C-127.43568444 72.4995262 -125.11975011 70.1310183 -122.78125 67.75 C-120.28103815 65.29365151 -117.62319484 63.03690632 -114.96875 60.75 C-113.06976929 59.06201714 -111.27994012 57.31230266 -109.5 55.5 C-107.10946833 53.06610268 -104.64953738 50.78644441 -102.0625 48.5625 C-99.25423653 46.14382221 -96.60029407 43.64100317 -94 41 C-90.7784145 37.72797872 -87.41407855 34.70683945 -83.93359375 31.71484375 C-81.43568444 29.4995262 -79.11975011 27.1310183 -76.78125 24.75 C-74.27949144 22.29213194 -71.62137999 20.03329163 -68.9609375 17.75 C-67.08329016 16.07433066 -65.358414 14.32293304 -63.625 12.5 C-47.60073314 -3.63278334 -21.02633469 -10.41521858 0 0 Z M-43.24609375 39.21875 C-44.60927734 40.59546875 -44.60927734 40.59546875 -46 42 C-47.00740234 43.00546875 -47.00740234 43.00546875 -48.03515625 44.03125 C-49.15043711 45.14907136 -50.261371 46.27125257 -51.3671875 47.3984375 C-53.14130008 49.13859577 -54.98986551 50.75600214 -56.875 52.375 C-59.8846753 54.96634205 -62.71088616 57.67254783 -65.5 60.5 C-68.86114482 63.9071879 -72.33701203 67.07458174 -75.96875 70.1875 C-78.23638572 72.2109288 -80.3657695 74.33653347 -82.5 76.5 C-85.86114482 79.9071879 -89.33701203 83.07458174 -92.96875 86.1875 C-95.23638572 88.2109288 -97.3657695 90.33653347 -99.5 92.5 C-102.86114482 95.9071879 -106.33701203 99.07458174 -109.96875 102.1875 C-112.23638572 104.2109288 -114.3657695 106.33653347 -116.5 108.5 C-119.86114482 111.9071879 -123.33701203 115.07458174 -126.96875 118.1875 C-129.23638572 120.2109288 -131.3657695 122.33653347 -133.5 124.5 C-136.86114482 127.9071879 -140.33701203 131.07458174 -143.96875 134.1875 C-146.23638572 136.2109288 -148.3657695 138.33653347 -150.5 140.5 C-153.86114482 143.9071879 -157.33701203 147.07458174 -160.96875 150.1875 C-163.23638572 152.2109288 -165.3657695 154.33653347 -167.5 156.5 C-170.86114482 159.9071879 -174.33701203 163.07458174 -177.96875 166.1875 C-181.03227684 168.92110856 -183.87415849 171.86439666 -186.75390625 174.7890625 C-189.51026541 177.50227865 -192.40533981 180.01173875 -195.37109375 182.4921875 C-197.2357874 184.10040045 -197.2357874 184.10040045 -199 187 C-196.97512964 189.02487036 -192.80360583 188.16101877 -190.01953125 188.17578125 C-188.36391976 188.19899245 -186.70832078 188.2231103 -185.05273438 188.24804688 C-182.43700969 188.28308 -179.8217406 188.3124524 -177.20581055 188.32592773 C-174.68481701 188.34146434 -172.16516713 188.38172388 -169.64453125 188.42578125 C-168.86930618 188.42387283 -168.09408112 188.42196442 -167.29536438 188.41999817 C-162.11104144 188.53598766 -159.06222955 189.50647509 -155 193 C-152.3898314 196.64590521 -151.62249688 199.1511561 -151.60127258 203.61250305 C-151.58873444 204.73004471 -151.57619629 205.84758636 -151.5632782 206.99899292 C-151.56471329 208.21531403 -151.56614838 209.43163513 -151.56762695 210.68481445 C-151.55233948 212.61711662 -151.55233948 212.61711662 -151.53674316 214.5884552 C-151.50919444 218.11286264 -151.49989162 221.63710874 -151.49388909 225.16160989 C-151.48449982 228.84789168 -151.45829601 232.53405322 -151.43388367 236.22026062 C-151.39023012 243.19701579 -151.36167617 250.1737476 -151.33856028 257.15059775 C-151.31150244 265.09500903 -151.26759132 273.03929927 -151.22227156 280.9836241 C-151.1294417 297.32235469 -151.05775343 313.66110697 -151 330 C-137.29221662 333.58947599 -123.24136977 332.01329785 -110.02734375 327.4140625 C-109.34603394 327.18178955 -108.66472412 326.9495166 -107.96276855 326.71020508 C-106.30687215 326.14491881 -104.65319131 325.57314915 -103 325 C-102.99635437 324.15634384 -102.99270874 323.31268768 -102.98895264 322.44346619 C-102.95082281 314.4276124 -102.8936919 306.4121552 -102.81609726 298.3965826 C-102.77686726 294.27731348 -102.7445606 290.1582503 -102.72900391 286.03881836 C-102.71367364 282.05090449 -102.67894664 278.0635578 -102.63169098 274.07589912 C-102.61704353 272.5672052 -102.60896875 271.05843023 -102.60811615 269.54966545 C-102.59295354 256.15100318 -100.58365624 243.6252238 -94.1875 231.625 C-93.67255981 230.62859497 -93.67255981 230.62859497 -93.1472168 229.61206055 C-89.17497183 222.13086213 -84.21084191 215.76721035 -78 210 C-77.4121875 209.40703125 -76.824375 208.8140625 -76.21875 208.203125 C-59.71207953 192.31237507 -38.66770647 188.46103855 -16.546875 188.73046875 C0.413896 189.21981447 17.43428602 196.54650553 30 208 C31.22783203 209.09054688 31.22783203 209.09054688 32.48046875 210.203125 C46.13254569 223.0084014 55.61798121 241.86709317 56.3826828 260.75327778 C56.47003717 264.33042622 56.49688994 267.9062955 56.51171875 271.484375 C56.52860487 273.0366555 56.54676025 274.58892265 56.56611633 276.14117432 C56.6131964 280.18517889 56.64327518 284.22912936 56.66955566 288.27331543 C56.69957571 292.41669397 56.74603109 296.55988669 56.79101562 300.703125 C56.87656955 308.8019911 56.94412511 316.90087496 57 325 C59.39460588 325.81627446 61.79056526 326.62811645 64.1875 327.4375 C64.86103516 327.66759766 65.53457031 327.89769531 66.22851562 328.13476562 C71.81874709 330.01635573 76.71011662 331.12585029 82.59765625 331.1328125 C83.64630859 331.13410156 84.69496094 331.13539063 85.77539062 331.13671875 C86.86013672 331.13285156 87.94488281 331.12898438 89.0625 331.125 C90.69541992 331.13080078 90.69541992 331.13080078 92.36132812 331.13671875 C93.40869141 331.13542969 94.45605469 331.13414062 95.53515625 331.1328125 C96.487854 331.13168457 97.44055176 331.13055664 98.42211914 331.12939453 C100.77829712 331.01112819 102.73398135 330.60617451 105 330 C105.00219984 328.98785714 105.00219984 328.98785714 105.00444412 327.95526695 C105.04151098 311.52966861 105.10052391 295.10431022 105.18390274 278.67888451 C105.22369623 270.73562663 105.2560871 262.79246787 105.27099609 254.84912109 C105.28401106 247.92492746 105.31097156 241.00095188 105.35461307 234.07688105 C105.37723165 230.41127042 105.39291046 226.74592877 105.39188385 223.08024216 C105.39099869 218.98596638 105.42125022 214.89248396 105.45410156 210.79833984 C105.4490712 209.58561401 105.44404083 208.37288818 105.43885803 207.12341309 C105.51743759 200.80377392 105.66974894 196.76458557 110 192 C114.16270921 188.53421288 118.37487326 188.53074755 123.58203125 188.48828125 C124.39621017 188.47033005 125.2103891 188.45237885 126.04924011 188.43388367 C128.63694152 188.3799179 131.22445993 188.34592975 133.8125 188.3125 C135.57229101 188.27931472 137.33205792 188.24482394 139.09179688 188.20898438 C143.39439893 188.12419958 147.69694801 188.05732335 152 188 C151.48800771 184.20940407 150.81081706 182.31841501 147.96484375 179.7578125 C147.01049438 178.88274048 147.01049438 178.88274048 146.03686523 177.98999023 C145.34407471 177.37454346 144.65128418 176.75909668 143.9375 176.125 C142.46847688 174.78545571 140.99973462 173.44560335 139.53125 172.10546875 C138.77714844 171.42403809 138.02304687 170.74260742 137.24609375 170.04052734 C133.76961799 166.88222469 130.35561416 163.65866668 126.9375 160.4375 C125.60331572 159.18571691 124.26868142 157.93441328 122.93359375 156.68359375 C122.27987793 156.07112793 121.62616211 155.45866211 120.95263672 154.82763672 C117.1875183 151.30354613 113.41568957 147.78664957 109.64428711 144.26928711 C105.08943557 140.02004217 100.54306813 135.76183843 96 131.5 C88.34573315 124.32001424 80.67506765 117.15773818 73 110 C64.65073134 102.21350458 56.30957989 94.41857228 47.98291016 86.60791016 C41.00025634 80.05944614 34.00086645 73.52898077 27 67 C24.52061436 64.68773462 22.04147074 62.37521019 19.5625 60.0625 C18.95132324 59.49257324 18.34014648 58.92264648 17.71044922 58.33544922 C14.39402797 55.24110588 11.08387661 52.14031607 7.78125 49.03125 C6.72442017 48.03726196 6.72442017 48.03726196 5.64624023 47.02319336 C4.30608779 45.76217821 2.96697144 44.50006054 1.62915039 43.23657227 C-0.23774624 41.48050819 -2.11630914 39.73802717 -4 38 C-4.68030273 37.36360596 -5.36060547 36.72721191 -6.06152344 36.0715332 C-9.65315172 32.79723584 -12.53978889 30.22935694 -17.375 29.0625 C-18.20773437 28.84722656 -19.04046875 28.63195312 -19.8984375 28.41015625 C-29.66214607 26.50459975 -36.76974145 32.85883357 -43.24609375 39.21875 Z M-59.40625 237.0625 C-69.45717822 249.28127549 -71.18813481 262.77570585 -71.09765625 278.06640625 C-71.0962413 278.98590561 -71.09482635 279.90540497 -71.09336853 280.85276794 C-71.08782312 283.75604671 -71.07528117 286.65924501 -71.0625 289.5625 C-71.05747793 291.54492075 -71.05291627 293.52734273 -71.04882812 295.50976562 C-71.03787164 300.3398742 -71.02064542 305.16992351 -71 310 C-69.78546143 309.58862793 -68.57092285 309.17725586 -67.31958008 308.75341797 C-65.69877663 308.20787066 -64.07792441 307.6624682 -62.45703125 307.1171875 C-61.26116394 306.71149536 -61.26116394 306.71149536 -60.0411377 306.29760742 C-31.10415834 296.58542585 -3.21660681 300.46338481 25 310 C25.0499526 304.25660425 25.08597755 298.51333881 25.10986328 292.76977539 C25.11983541 290.82151075 25.13341797 288.87326074 25.15087891 286.92504883 C25.32857794 266.56805712 24.8251531 249.20657029 9.8984375 233.8359375 C-1.03486825 223.52076917 -12.57525865 220.37551778 -27.22265625 220.69140625 C-40.1184592 221.30211337 -50.66233412 227.82364549 -59.40625 237.0625 Z " fill="#000000" transform="translate(279,36)"/>
<path d="M0 0 C0.97146973 0.01208496 1.94293945 0.02416992 2.94384766 0.03662109 C20.66414811 0.51476493 36.84859942 6.13129296 52.671875 13.82421875 C53.29535324 14.12728943 53.91883148 14.43036011 54.561203 14.74261475 C57.69509515 16.27122563 60.81977597 17.81567729 63.93286133 19.38623047 C75.05544091 24.91140058 86.61407482 29.87517178 99.125 30.9375 C99.91680664 31.0104126 100.70861328 31.0833252 101.52441406 31.15844727 C120.28508402 32.57614425 136.82913707 26.82155993 153.36068726 18.48138428 C156.50276201 16.90092503 159.66491773 15.36184318 162.828125 13.82421875 C163.4392363 13.52710999 164.0503476 13.23000122 164.67997742 12.92388916 C171.57526896 9.59038863 178.42319708 6.74952652 185.75 4.5 C186.37084473 4.29697266 186.99168945 4.09394531 187.63134766 3.88476562 C221.11158553 -6.74175293 254.23691041 3.02831782 284.50585938 17.73413086 C302.61655556 26.52514312 319.60239123 32.96991312 340 30.875 C341.02540894 30.77143188 341.02540894 30.77143188 342.0715332 30.66577148 C353.6026825 29.17590618 364.15983709 24.66374368 374.5625 19.6875 C376.84990038 18.61641827 379.13765971 17.54610278 381.42578125 16.4765625 C384.35264014 15.09987884 387.2789627 13.72207249 390.20458984 12.34277344 C405.76424432 5.0592303 421.48736256 0.35921058 438.75 0.1875 C439.72195313 0.15849609 440.69390625 0.12949219 441.6953125 0.09960938 C447.59252974 0.04738606 451.1128669 0.47379079 455.75 4.5 C459.37833663 8.31930172 460.06000458 11.38279006 460.25 16.5 C460.06000458 21.61720994 459.37833663 24.68069828 455.75 28.5 C450.35472935 33.08121697 445.21092769 33.33211136 438.3125 33.9375 C422.24283438 35.70383217 409.76635076 40.83083814 395.31005859 47.90380859 C366.33509493 62.03974791 333.79299237 71.09323943 301.75 61.5 C300.64785156 61.20609375 299.54570312 60.9121875 298.41015625 60.609375 C288.825572 57.77106718 280.0600583 53.40202527 271.10131836 49.02587891 C245.31752952 36.44091116 220.93204723 28.81264547 192.66491699 38.30815125 C186.24521846 40.5642051 180.21332241 43.45392749 174.13766479 46.51889038 C144.57508008 61.39780694 110.73106092 71.63905406 77.75 61.5 C76.50089844 61.13261719 75.25179687 60.76523437 73.96484375 60.38671875 C63.82328863 57.19421176 54.39463959 52.5624075 44.85913086 47.90478516 C29.03870414 40.18520122 14.14010132 34.51694879 -3.57714844 33.40917969 C-10.13422161 32.88929551 -14.02198133 30.84528281 -18.625 26 C-21.02303575 20.83499991 -21.00381535 16.0997712 -20.25 10.5 C-16.0305181 1.41188515 -9.20511347 -0.18362325 0 0 Z " fill="#000000" transform="translate(36.25,415.5)"/>
</svg>
