<svg width="28" height="48" viewBox="0 0 28 48" fill="none" xmlns="http://www.w3.org/2000/svg">
<path d="M20.0264 29.6151C21.3864 30.5023 22.52 31.657 23.3307 32.9887C24.2117 34.4345 24.7148 36.0869 24.7148 37.8318C24.7148 40.6271 23.4361 43.1708 21.3797 45.0139C19.3212 46.8571 16.4827 48 13.3584 48C10.2365 48 7.39787 46.8551 5.3394 45.0139C3.27862 43.1727 2 40.6292 2 37.8318C2 36.1125 2.49212 34.4523 3.38626 32.9848C4.18598 31.6746 5.30644 30.518 6.68612 29.619V5.97221C6.68612 4.33163 7.43746 2.83855 8.64364 1.75665C9.85634 0.670825 11.5239 0 13.3539 0C15.184 0 16.8515 0.672738 18.0599 1.75469C19.2726 2.84052 20.024 4.33359 20.024 5.97221V29.617L20.0264 29.6151ZM22.3596 23.3304C21.7378 23.3304 21.2347 22.8799 21.2347 22.3232C21.2347 21.7665 21.7379 21.316 22.3596 21.316H24.8752C25.4969 21.316 26 21.7665 26 22.3232C26 22.8799 25.4969 23.3304 24.8752 23.3304H22.3596ZM22.3596 9.54272C21.7378 9.54272 21.2347 9.09225 21.2347 8.53555C21.2347 7.97886 21.7379 7.52838 22.3596 7.52838H24.8752C25.4969 7.52838 26 7.97886 26 8.53555C26 9.09225 25.4969 9.54272 24.8752 9.54272H22.3596ZM22.3596 14.1379C21.7378 14.1379 21.2347 13.6875 21.2347 13.1308C21.2347 12.5741 21.7379 12.1236 22.3596 12.1236H24.8752C25.4969 12.1236 26 12.5741 26 13.1308C26 13.6875 25.4969 14.1379 24.8752 14.1379H22.3596ZM22.3596 18.7331C21.7378 18.7331 21.2347 18.2827 21.2347 17.726C21.2347 17.1693 21.7379 16.7188 22.3596 16.7188H24.8752C25.4969 16.7188 26 17.1693 26 17.726C26 18.2827 25.4969 18.7331 24.8752 18.7331H22.3596ZM22.3596 27.9235C21.7378 27.9235 21.2347 27.4731 21.2347 26.9164C21.2347 26.3597 21.7379 25.9092 22.3596 25.9092H24.8752C25.4969 25.9092 26 26.3597 26 26.9164C26 27.4731 25.4969 27.9235 24.8752 27.9235H22.3596ZM13.3586 14.4804C14.178 14.4804 14.9206 14.7794 15.4589 15.2613C15.9971 15.7433 16.3311 16.4101 16.3311 17.1419V31.8914C17.4867 32.3556 18.4819 33.0835 19.2223 33.9864C20.1055 35.0644 20.6283 36.3962 20.6283 37.8302C20.6283 39.6261 19.8133 41.2549 18.4995 42.4332L18.4357 42.4863C17.1242 43.6332 15.3314 44.3394 13.3608 44.3394C11.3549 44.3394 9.53582 43.6096 8.21986 42.4332C6.9039 41.2549 6.09097 39.6281 6.09097 37.8301C6.09097 36.3941 6.61385 35.0644 7.49704 33.9864C8.23741 33.0835 9.23262 32.3556 10.3882 31.8914V17.1419C10.3882 16.4121 10.7244 15.7472 11.2604 15.2652C11.7987 14.7794 12.5434 14.4804 13.3608 14.4804L13.3586 14.4804ZM21.3641 33.9469C20.6457 32.7686 19.6109 31.7634 18.3631 31.0238C18.0137 30.8526 17.7786 30.5202 17.7786 30.1405V5.9705C17.7786 4.88467 17.2799 3.89321 16.4802 3.1752C15.6783 2.45915 14.5733 2.01459 13.3583 2.01459C12.1434 2.01459 11.0361 2.45916 10.2364 3.1752C9.43671 3.89321 8.94021 4.88265 8.94021 5.9705V30.1425C8.93581 30.4711 8.75566 30.7917 8.42612 30.9845C7.12332 31.7418 6.07754 32.7648 5.35696 33.943C4.64516 35.1115 4.25191 36.4453 4.25191 37.8301C4.25191 40.0726 5.27789 42.1106 6.92782 43.5881C8.57555 45.0674 10.856 45.984 13.3608 45.984C15.8656 45.984 18.1414 45.0654 19.7916 43.5881C21.4415 42.1108 22.4675 40.0709 22.4675 37.8301C22.4675 36.4236 22.0671 35.0977 21.3641 33.9469Z" fill="white"/>
</svg>
