<svg width="60" height="20" viewBox="0 0 60 20" fill="none" xmlns="http://www.w3.org/2000/svg">
<rect x="0.5" y="0.5" width="59" height="19" rx="3.5" fill="white" stroke="#73004C"/>
<path d="M14.7099 6.72727V14H13.3924V8.00923H13.3498L11.6488 9.09588V7.88849L13.4563 6.72727H14.7099ZM16.5565 14V13.0483L19.0813 10.5732C19.3228 10.3293 19.524 10.1127 19.685 9.9233C19.846 9.7339 19.9667 9.55043 20.0472 9.37287C20.1277 9.19531 20.168 9.00592 20.168 8.80469C20.168 8.57505 20.1159 8.37855 20.0117 8.2152C19.9076 8.04948 19.7643 7.92164 19.582 7.83168C19.3997 7.74171 19.1926 7.69673 18.9606 7.69673C18.7215 7.69673 18.512 7.74645 18.332 7.84588C18.1521 7.94294 18.0124 8.08144 17.913 8.26136C17.8159 8.44129 17.7674 8.65554 17.7674 8.90412H16.5138C16.5138 8.44247 16.6192 8.04119 16.8299 7.70028C17.0406 7.35937 17.3306 7.09541 17.6999 6.90838C18.0716 6.72135 18.4978 6.62784 18.9783 6.62784C19.466 6.62784 19.8945 6.71899 20.2638 6.90128C20.6332 7.08357 20.9196 7.33333 21.1232 7.65057C21.3292 7.9678 21.4322 8.33002 21.4322 8.73722C21.4322 9.00947 21.3801 9.27699 21.2759 9.53977C21.1718 9.80256 20.9883 10.0937 20.7255 10.4134C20.4651 10.733 20.0993 11.12 19.6282 11.5746L18.3746 12.8494V12.8991H21.5423V14H16.5565ZM25.4556 14.1385C24.8709 14.1385 24.369 13.9905 23.9499 13.6946C23.5333 13.3963 23.2125 12.9666 22.9876 12.4055C22.765 11.8421 22.6538 11.1638 22.6538 10.3707C22.6561 9.57765 22.7686 8.90294 22.9911 8.34659C23.216 7.78788 23.5368 7.36174 23.9535 7.06818C24.3725 6.77462 24.8732 6.62784 25.4556 6.62784C26.038 6.62784 26.5387 6.77462 26.9577 7.06818C27.3768 7.36174 27.6976 7.78788 27.9201 8.34659C28.145 8.9053 28.2575 9.58002 28.2575 10.3707C28.2575 11.1662 28.145 11.8456 27.9201 12.4091C27.6976 12.9702 27.3768 13.3987 26.9577 13.6946C26.5411 13.9905 26.0404 14.1385 25.4556 14.1385ZM25.4556 13.027C25.9102 13.027 26.2688 12.8033 26.5316 12.3558C26.7968 11.906 26.9293 11.2443 26.9293 10.3707C26.9293 9.79309 26.869 9.30777 26.7482 8.91477C26.6275 8.52178 26.457 8.22585 26.2369 8.02699C26.0167 7.82576 25.7563 7.72514 25.4556 7.72514C25.0034 7.72514 24.646 7.95005 24.3832 8.39986C24.1204 8.8473 23.9878 9.50426 23.9854 10.3707C23.9831 10.9508 24.0411 11.4384 24.1594 11.8338C24.2802 12.2292 24.4506 12.5275 24.6708 12.7287C24.891 12.9276 25.1526 13.027 25.4556 13.027ZM32.7576 9.83452V10.8928H29.4835V9.83452H32.7576ZM34.1665 14V6.72727H35.484V9.80611H38.854V6.72727H40.1751V14H38.854V10.9105H35.484V14H34.1665ZM41.608 14V6.72727H44.3352C44.8939 6.72727 45.3627 6.82434 45.7415 7.01847C46.1226 7.21259 46.4103 7.48485 46.6044 7.83523C46.8009 8.18324 46.8991 8.58925 46.8991 9.05327C46.8991 9.51965 46.7997 9.92448 46.6009 10.2678C46.4044 10.6087 46.1143 10.8726 45.7308 11.0597C45.3473 11.2443 44.8762 11.3366 44.3175 11.3366H42.375V10.2429H44.1399C44.4666 10.2429 44.7341 10.1979 44.9425 10.108C45.1508 10.0156 45.3047 9.88187 45.4041 9.70668C45.5059 9.52912 45.5568 9.31132 45.5568 9.05327C45.5568 8.79522 45.5059 8.57505 45.4041 8.39276C45.3023 8.2081 45.1473 8.06842 44.9389 7.97372C44.7306 7.87666 44.4619 7.82812 44.1328 7.82812H42.9254V14H41.608ZM45.3651 10.7045L47.1655 14H45.6953L43.9268 10.7045H45.3651Z" fill="#73004C"/>
</svg>
