<svg width="60" height="20" viewBox="0 0 60 20" fill="none" xmlns="http://www.w3.org/2000/svg">
<rect x="0.5" y="0.5" width="59" height="19" rx="3.5" fill="white" stroke="#FF0000"/>
<path d="M14.9823 14V13.0483L17.5071 10.5732C17.7486 10.3293 17.9498 10.1127 18.1108 9.9233C18.2718 9.7339 18.3925 9.55043 18.473 9.37287C18.5535 9.19531 18.5938 9.00592 18.5938 8.80469C18.5938 8.57505 18.5417 8.37855 18.4375 8.2152C18.3333 8.04948 18.1901 7.92164 18.0078 7.83168C17.8255 7.74171 17.6184 7.69673 17.3864 7.69673C17.1473 7.69673 16.9378 7.74645 16.7578 7.84588C16.5779 7.94294 16.4382 8.08144 16.3388 8.26136C16.2417 8.44129 16.1932 8.65554 16.1932 8.90412H14.9396C14.9396 8.44247 15.045 8.04119 15.2557 7.70028C15.4664 7.35937 15.7564 7.09541 16.1257 6.90838C16.4974 6.72135 16.9235 6.62784 17.4041 6.62784C17.8918 6.62784 18.3203 6.71899 18.6896 6.90128C19.059 7.08357 19.3454 7.33333 19.549 7.65057C19.755 7.9678 19.858 8.33002 19.858 8.73722C19.858 9.00947 19.8059 9.27699 19.7017 9.53977C19.5976 9.80256 19.4141 10.0937 19.1513 10.4134C18.8909 10.733 18.5251 11.12 18.054 11.5746L16.8004 12.8494V12.8991H19.9681V14H14.9823ZM20.9056 12.6506V11.603L23.9915 6.72727H24.8651V8.21875H24.3324L22.255 11.5107V11.5675H26.5625V12.6506H20.9056ZM24.375 14V12.331L24.3892 11.8622V6.72727H25.6321V14H24.375ZM31.0174 9.83452V10.8928H27.7433V9.83452H31.0174ZM32.4263 14V6.72727H33.7438V9.80611H37.1138V6.72727H38.4349V14H37.1138V10.9105H33.7438V14H32.4263ZM39.8677 14V6.72727H42.595C43.1537 6.72727 43.6225 6.82434 44.0013 7.01847C44.3824 7.21259 44.6701 7.48485 44.8642 7.83523C45.0607 8.18324 45.1589 8.58925 45.1589 9.05327C45.1589 9.51965 45.0595 9.92448 44.8606 10.2678C44.6641 10.6087 44.3741 10.8726 43.9906 11.0597C43.6071 11.2443 43.136 11.3366 42.5773 11.3366H40.6348V10.2429H42.3997C42.7264 10.2429 42.9939 10.1979 43.2023 10.108C43.4106 10.0156 43.5645 9.88187 43.6639 9.70668C43.7657 9.52912 43.8166 9.31132 43.8166 9.05327C43.8166 8.79522 43.7657 8.57505 43.6639 8.39276C43.5621 8.2081 43.407 8.06842 43.1987 7.97372C42.9904 7.87666 42.7217 7.82812 42.3926 7.82812H41.1852V14H39.8677ZM43.6248 10.7045L45.4253 14H43.9551L42.1866 10.7045H43.6248Z" fill="#FF0000"/>
</svg>
