<svg width="60" height="20" viewBox="0 0 60 20" fill="none" xmlns="http://www.w3.org/2000/svg">
<rect x="0.5" y="0.5" width="59" height="19" rx="3.5" fill="white" stroke="#005CE6"/>
<path d="M14.6555 12.6506V11.603L17.7415 6.72727H18.6151V8.21875H18.0824L16.005 11.5107V11.5675H20.3125V12.6506H14.6555ZM18.125 14V12.331L18.1392 11.8622V6.72727H19.3821V14H18.125ZM24.0323 14.0994C23.5044 14.0994 23.0356 14.0107 22.6261 13.8331C22.2189 13.6555 21.8993 13.4129 21.6673 13.1051C21.4376 12.795 21.324 12.4434 21.3263 12.0504C21.324 11.745 21.3903 11.4645 21.5252 11.2088C21.6602 10.9531 21.8424 10.7401 22.0721 10.5696C22.3041 10.3968 22.5621 10.2867 22.8462 10.2393V10.1896C22.4722 10.1068 22.1692 9.91619 21.9371 9.6179C21.7075 9.31723 21.5939 8.97041 21.5962 8.57741C21.5939 8.20336 21.698 7.86955 21.9087 7.57599C22.1194 7.28243 22.4083 7.05161 22.7752 6.88352C23.1422 6.71307 23.5612 6.62784 24.0323 6.62784C24.4987 6.62784 24.9142 6.71307 25.2788 6.88352C25.6457 7.05161 25.9345 7.28243 26.1452 7.57599C26.3583 7.86955 26.4648 8.20336 26.4648 8.57741C26.4648 8.97041 26.3477 9.31723 26.1133 9.6179C25.8813 9.91619 25.5818 10.1068 25.2148 10.1896V10.2393C25.4989 10.2867 25.7546 10.3968 25.9819 10.5696C26.2115 10.7401 26.3938 10.9531 26.5288 11.2088C26.6661 11.4645 26.7347 11.745 26.7347 12.0504C26.7347 12.4434 26.6187 12.795 26.3867 13.1051C26.1547 13.4129 25.8351 13.6555 25.4279 13.8331C25.0231 14.0107 24.5579 14.0994 24.0323 14.0994ZM24.0323 13.0838C24.3046 13.0838 24.5413 13.0376 24.7425 12.9453C24.9438 12.8506 25.1 12.718 25.2113 12.5476C25.3226 12.3771 25.3794 12.1806 25.3817 11.9581C25.3794 11.7261 25.319 11.5213 25.2006 11.3438C25.0846 11.1638 24.9248 11.023 24.7212 10.9212C24.52 10.8194 24.2904 10.7685 24.0323 10.7685C23.7719 10.7685 23.5399 10.8194 23.3363 10.9212C23.1327 11.023 22.9717 11.1638 22.8533 11.3438C22.7373 11.5213 22.6805 11.7261 22.6829 11.9581C22.6805 12.1806 22.735 12.3771 22.8462 12.5476C22.9575 12.7157 23.1138 12.8471 23.315 12.9418C23.5186 13.0365 23.7577 13.0838 24.0323 13.0838ZM24.0323 9.7706C24.2549 9.7706 24.4513 9.72562 24.6218 9.63565C24.7946 9.54569 24.9308 9.42022 25.0302 9.25923C25.1296 9.09825 25.1805 8.91241 25.1829 8.7017C25.1805 8.49337 25.1308 8.31108 25.0337 8.15483C24.9367 7.99621 24.8017 7.87429 24.6289 7.78906C24.4561 7.70147 24.2572 7.65767 24.0323 7.65767C23.8027 7.65767 23.6003 7.70147 23.4251 7.78906C23.2522 7.87429 23.1173 7.99621 23.0202 8.15483C22.9255 8.31108 22.8794 8.49337 22.8817 8.7017C22.8794 8.91241 22.9267 9.09825 23.0238 9.25923C23.1232 9.41785 23.2594 9.54332 23.4322 9.63565C23.6074 9.72562 23.8074 9.7706 24.0323 9.7706ZM31.2225 9.83452V10.8928H27.9483V9.83452H31.2225ZM32.6314 14V6.72727H33.9489V9.80611H37.3189V6.72727H38.6399V14H37.3189V10.9105H33.9489V14H32.6314ZM40.0728 14V6.72727H42.8001C43.3588 6.72727 43.8275 6.82434 44.2063 7.01847C44.5875 7.21259 44.8751 7.48485 45.0692 7.83523C45.2657 8.18324 45.364 8.58925 45.364 9.05327C45.364 9.51965 45.2646 9.92448 45.0657 10.2678C44.8692 10.6087 44.5792 10.8726 44.1957 11.0597C43.8121 11.2443 43.341 11.3366 42.7823 11.3366H40.8398V10.2429H42.6048C42.9315 10.2429 43.199 10.1979 43.4073 10.108C43.6156 10.0156 43.7695 9.88187 43.869 9.70668C43.9708 9.52912 44.0217 9.31132 44.0217 9.05327C44.0217 8.79522 43.9708 8.57505 43.869 8.39276C43.7672 8.2081 43.6121 8.06842 43.4038 7.97372C43.1954 7.87666 42.9267 7.82812 42.5977 7.82812H41.3903V14H40.0728ZM43.8299 10.7045L45.6303 14H44.1602L42.3917 10.7045H43.8299Z" fill="#005CE6"/>
</svg>
