<svg width="60" height="20" viewBox="0 0 60 20" fill="none" xmlns="http://www.w3.org/2000/svg">
<rect x="0.5" y="0.5" width="59" height="19" rx="3.5" fill="white" stroke="#38A800"/>
<path d="M15.566 14L18.659 7.87784V7.82812H15.0688V6.72727H20.0227V7.85298L16.9332 14H15.566ZM21.1688 14V13.0483L23.6936 10.5732C23.9351 10.3293 24.1363 10.1127 24.2973 9.9233C24.4583 9.7339 24.5791 9.55043 24.6595 9.37287C24.74 9.19531 24.7803 9.00592 24.7803 8.80469C24.7803 8.57505 24.7282 8.37855 24.624 8.2152C24.5199 8.04948 24.3766 7.92164 24.1943 7.83168C24.0121 7.74171 23.8049 7.69673 23.5729 7.69673C23.3338 7.69673 23.1243 7.74645 22.9443 7.84588C22.7644 7.94294 22.6247 8.08144 22.5253 8.26136C22.4283 8.44129 22.3797 8.65554 22.3797 8.90412H21.1262C21.1262 8.44247 21.2315 8.04119 21.4422 7.70028C21.6529 7.35937 21.9429 7.09541 22.3122 6.90838C22.6839 6.72135 23.1101 6.62784 23.5907 6.62784C24.0783 6.62784 24.5068 6.71899 24.8762 6.90128C25.2455 7.08357 25.5319 7.33333 25.7355 7.65057C25.9415 7.9678 26.0445 8.33002 26.0445 8.73722C26.0445 9.00947 25.9924 9.27699 25.8882 9.53977C25.7841 9.80256 25.6006 10.0937 25.3378 10.4134C25.0774 10.733 24.7116 11.12 24.2405 11.5746L22.987 12.8494V12.8991H26.1546V14H21.1688ZM30.7 9.83452V10.8928H27.4259V9.83452H30.7ZM32.1089 14V6.72727H33.4264V9.80611H36.7964V6.72727H38.1175V14H36.7964V10.9105H33.4264V14H32.1089ZM39.5504 14V6.72727H42.2776C42.8363 6.72727 43.3051 6.82434 43.6839 7.01847C44.065 7.21259 44.3527 7.48485 44.5468 7.83523C44.7433 8.18324 44.8415 8.58925 44.8415 9.05327C44.8415 9.51965 44.7421 9.92448 44.5432 10.2678C44.3468 10.6087 44.0567 10.8726 43.6732 11.0597C43.2897 11.2443 42.8186 11.3366 42.2599 11.3366H40.3174V10.2429H42.0823C42.409 10.2429 42.6765 10.1979 42.8849 10.108C43.0932 10.0156 43.2471 9.88187 43.3465 9.70668C43.4483 9.52912 43.4992 9.31132 43.4992 9.05327C43.4992 8.79522 43.4483 8.57505 43.3465 8.39276C43.2447 8.2081 43.0897 8.06842 42.8813 7.97372C42.673 7.87666 42.4043 7.82812 42.0752 7.82812H40.8678V14H39.5504ZM43.3075 10.7045L45.1079 14H43.6377L41.8692 10.7045H43.3075Z" fill="#38A800"/>
</svg>
