<svg width="60" height="20" viewBox="0 0 60 20" fill="none" xmlns="http://www.w3.org/2000/svg">
<rect x="0.5" y="0.5" width="59" height="19" rx="3.5" fill="white" stroke="#E69800"/>
<path d="M17.3802 6.62784C17.7282 6.63021 18.0667 6.69176 18.3958 6.8125C18.7272 6.93087 19.0255 7.125 19.2907 7.39489C19.5558 7.66241 19.7665 8.02107 19.9228 8.47088C20.079 8.92069 20.1572 9.47704 20.1572 10.1399C20.1595 10.7649 20.0932 11.3236 19.9583 11.8161C19.8257 12.3061 19.6351 12.7204 19.3866 13.0589C19.138 13.3975 18.8385 13.6555 18.4881 13.8331C18.1377 14.0107 17.7436 14.0994 17.3056 14.0994C16.8463 14.0994 16.4391 14.0095 16.084 13.8295C15.7313 13.6496 15.446 13.4034 15.2282 13.0909C15.0104 12.7784 14.8766 12.4209 14.8269 12.0185H16.1231C16.1893 12.3073 16.3243 12.5369 16.5279 12.7074C16.7339 12.8755 16.9931 12.9595 17.3056 12.9595C17.8099 12.9595 18.1981 12.7405 18.4704 12.3026C18.7426 11.8646 18.8787 11.2562 18.8787 10.4773H18.829C18.713 10.6856 18.5627 10.8655 18.378 11.017C18.1934 11.1662 17.9839 11.281 17.7495 11.3615C17.5175 11.442 17.2713 11.4822 17.0108 11.4822C16.5847 11.4822 16.2012 11.3804 15.8603 11.1768C15.5217 10.9732 15.253 10.6939 15.0542 10.3388C14.8577 9.98366 14.7582 9.57765 14.7559 9.12074C14.7559 8.64725 14.8648 8.2223 15.0826 7.84588C15.3027 7.46709 15.6093 7.1688 16.0023 6.95099C16.3953 6.73082 16.8546 6.62311 17.3802 6.62784ZM17.3837 7.69318C17.128 7.69318 16.8972 7.75592 16.6912 7.88139C16.4876 8.0045 16.3267 8.17259 16.2083 8.38565C16.0923 8.59635 16.0343 8.83191 16.0343 9.09233C16.0366 9.35038 16.0947 9.58475 16.2083 9.79545C16.3243 10.0062 16.4817 10.1731 16.6806 10.2962C16.8818 10.4193 17.1115 10.4808 17.3695 10.4808C17.5613 10.4808 17.74 10.4441 17.9057 10.3707C18.0715 10.2973 18.2159 10.1955 18.339 10.0653C18.4644 9.93277 18.5615 9.78243 18.6302 9.61435C18.7012 9.44626 18.7355 9.2687 18.7331 9.08168C18.7331 8.8331 18.674 8.60346 18.5556 8.39276C18.4396 8.18205 18.2798 8.01278 18.0762 7.88494C17.875 7.7571 17.6441 7.69318 17.3837 7.69318ZM24.003 14.0994C23.655 14.0971 23.3153 14.0367 22.9839 13.9183C22.6524 13.7976 22.3541 13.6023 22.089 13.3324C21.8238 13.0601 21.6131 12.6991 21.4569 12.2493C21.3006 11.7971 21.2237 11.2372 21.226 10.5696C21.226 9.94697 21.2923 9.39181 21.4249 8.90412C21.5575 8.41643 21.7481 8.0045 21.9966 7.66832C22.2452 7.32978 22.5447 7.07173 22.8951 6.89418C23.2478 6.71662 23.642 6.62784 24.0776 6.62784C24.5345 6.62784 24.9393 6.7178 25.2921 6.89773C25.6472 7.07765 25.9337 7.32386 26.1515 7.63636C26.3693 7.9465 26.5042 8.29688 26.5563 8.6875H25.2601C25.1938 8.40814 25.0577 8.18561 24.8518 8.01989C24.6482 7.8518 24.3901 7.76776 24.0776 7.76776C23.5733 7.76776 23.1851 7.98674 22.9128 8.42472C22.6429 8.86269 22.5068 9.46402 22.5045 10.2287H22.5542C22.6702 10.0204 22.8205 9.84162 23.0052 9.69247C23.1898 9.54332 23.3982 9.4285 23.6302 9.34801C23.8645 9.26515 24.1119 9.22372 24.3724 9.22372C24.7985 9.22372 25.1808 9.32552 25.5194 9.52912C25.8603 9.73272 26.1302 10.0133 26.329 10.3707C26.5279 10.7259 26.6261 11.133 26.6238 11.5923C26.6261 12.0705 26.5172 12.5002 26.2971 12.8814C26.0769 13.2602 25.7703 13.5585 25.3773 13.7763C24.9843 13.9941 24.5262 14.1018 24.003 14.0994ZM23.9959 13.0341C24.254 13.0341 24.4848 12.9714 24.6884 12.8459C24.892 12.7204 25.053 12.5511 25.1714 12.3381C25.2897 12.125 25.3477 11.8859 25.3454 11.6207C25.3477 11.3603 25.2909 11.1248 25.1749 10.9141C25.0613 10.7034 24.9038 10.5365 24.7026 10.4134C24.5014 10.2902 24.2717 10.2287 24.0137 10.2287C23.8219 10.2287 23.6432 10.2654 23.4775 10.3388C23.3117 10.4122 23.1673 10.514 23.0442 10.6442C22.9211 10.772 22.8241 10.9212 22.753 11.0916C22.6844 11.2597 22.6489 11.4396 22.6465 11.6314C22.6489 11.8847 22.7081 12.1179 22.8241 12.331C22.9401 12.544 23.0999 12.7145 23.3035 12.8423C23.5071 12.9702 23.7379 13.0341 23.9959 13.0341ZM31.1444 9.83452V10.8928H27.8702V9.83452H31.1444ZM32.5533 14V6.72727H33.8708V9.80611H37.2408V6.72727H38.5618V14H37.2408V10.9105H33.8708V14H32.5533ZM39.9947 14V6.72727H42.722C43.2807 6.72727 43.7494 6.82434 44.1282 7.01847C44.5094 7.21259 44.797 7.48485 44.9911 7.83523C45.1876 8.18324 45.2859 8.58925 45.2859 9.05327C45.2859 9.51965 45.1864 9.92448 44.9876 10.2678C44.7911 10.6087 44.5011 10.8726 44.1176 11.0597C43.734 11.2443 43.2629 11.3366 42.7042 11.3366H40.7617V10.2429H42.5266C42.8534 10.2429 43.1209 10.1979 43.3292 10.108C43.5375 10.0156 43.6914 9.88187 43.7909 9.70668C43.8927 9.52912 43.9436 9.31132 43.9436 9.05327C43.9436 8.79522 43.8927 8.57505 43.7909 8.39276C43.6891 8.2081 43.534 8.06842 43.3257 7.97372C43.1173 7.87666 42.8486 7.82812 42.5195 7.82812H41.3122V14H39.9947ZM43.7518 10.7045L45.5522 14H44.082L42.3136 10.7045H43.7518Z" fill="#E69800"/>
</svg>
