<svg width="86" height="77" viewBox="0 0 86 77" fill="none" xmlns="http://www.w3.org/2000/svg">
<path fill-rule="evenodd" clip-rule="evenodd" d="M70.7087 58.0927H16.5663C12.3321 58.0927 8.35935 56.0403 5.37838 52.3062C2.40273 48.5788 0.765625 43.6235 0.765625 38.3487C0.765625 27.4602 7.85274 18.6056 16.566 18.6056C17.0353 18.6056 17.5046 18.6312 17.9793 18.6887C18.3579 14.1299 20.0057 9.90365 22.6667 6.67489C25.621 3.07523 29.5191 1.09961 33.6361 1.09961C37.0436 1.09961 40.2966 2.4487 43.0429 5.01894C45.3412 7.16724 47.1543 10.102 48.2316 13.3948C49.1328 12.8577 49.229 12.4326 51.9593 11.6142C54.6896 10.7958 57.4199 14.0694 57.4199 16.5246C57.4199 18.9798 55.3722 21.435 55.3722 21.435C54.007 23.0718 51.2767 28.5384 51.2767 31.2558C51.2767 33.9796 51.2767 33.711 52.6419 36.1662C54.247 38.0908 55.5 38.5 57.5 39C59.5 39.5 63.456 40.4382 67.5 40.5105C71.079 40.5745 72.7336 40.5105 75 40.5105C77.2664 40.5105 81.6567 38.2152 83.2725 36.2971L83.3045 36.2587C83.5978 35.9071 83.8644 35.5362 84.1044 35.1398C84.5416 36.8598 84.7656 38.6757 84.7656 40.5105C84.7656 50.2099 78.4517 58.0996 70.6976 58.0996L70.7087 58.0927ZM17.2325 53.8537C13.777 53.8537 10.5401 52.2488 8.09765 49.3397C5.64991 46.4113 4.29539 42.5111 4.29539 38.3489C4.29539 29.794 10.0973 22.8376 17.2325 22.8376C17.8191 22.8376 18.299 23.413 18.299 24.1163C18.299 24.8196 17.8191 25.3951 17.2325 25.3951C11.2759 25.3951 6.42846 31.207 6.42846 38.3489C6.42846 45.4908 11.2759 51.3027 17.2325 51.3027C17.8191 51.3027 18.299 51.8782 18.299 52.5815C18.299 53.2848 17.8191 53.8602 17.2325 53.8602V53.8537Z" fill="#0166FF"/>
<path d="M69.4801 36.3082C68.3205 36.3009 67.2013 36.1064 66.1225 35.7248C65.051 35.3432 64.0896 34.723 63.2383 33.8643C62.387 33.0057 61.7118 31.8681 61.2127 30.4517C60.721 29.0353 60.4751 27.2959 60.4751 25.2337C60.4825 23.3402 60.699 21.6486 61.1246 20.1587C61.5576 18.6616 62.1741 17.3919 62.9741 16.3498C63.7814 15.3076 64.7464 14.515 65.8693 13.9719C66.9922 13.4215 68.2508 13.1463 69.6452 13.1463C71.1497 13.1463 72.4781 13.4399 73.6303 14.027C74.7826 14.6068 75.7073 15.3957 76.4045 16.3938C77.109 17.3919 77.5347 18.5111 77.6815 19.7514H72.9808C72.7973 18.9661 72.4121 18.3497 71.8249 17.902C71.2378 17.4543 70.5112 17.2305 69.6452 17.2305C68.1774 17.2305 67.0619 17.869 66.2987 19.146C65.5427 20.4229 65.1574 22.1586 65.1428 24.353H65.2969C65.6345 23.6851 66.0895 23.1164 66.6619 22.6467C67.2417 22.1696 67.8986 21.8063 68.6325 21.5568C69.3737 21.3 70.1553 21.1715 70.9773 21.1715C72.313 21.1715 73.5019 21.4871 74.544 22.1183C75.5862 22.7421 76.4081 23.6007 77.0099 24.6942C77.6117 25.7878 77.9126 27.0391 77.9126 28.4482C77.9126 29.9747 77.5567 31.3324 76.8448 32.5213C76.1403 33.7102 75.1532 34.6423 73.8835 35.3175C72.6212 35.9853 71.1534 36.3156 69.4801 36.3082ZM69.4581 32.5653C70.192 32.5653 70.8488 32.3892 71.4286 32.0369C72.0084 31.6847 72.4634 31.2076 72.7937 30.6058C73.1239 30.004 73.2891 29.3288 73.2891 28.5803C73.2891 27.8317 73.1239 27.1602 72.7937 26.5657C72.4708 25.9712 72.0231 25.4979 71.4506 25.1456C70.8782 24.7933 70.225 24.6172 69.4911 24.6172C68.9407 24.6172 68.4306 24.7199 67.9609 24.9254C67.4986 25.1309 67.0913 25.4171 66.739 25.7841C66.3941 26.151 66.1225 26.5767 65.9244 27.0611C65.7262 27.5381 65.6271 28.0482 65.6271 28.5913C65.6271 29.3178 65.7923 29.982 66.1225 30.5838C66.4601 31.1856 66.9151 31.6663 67.4876 32.0259C68.0674 32.3855 68.7242 32.5653 69.4581 32.5653Z" fill="#0166FF"/>
<path fill-rule="evenodd" clip-rule="evenodd" d="M50.013 68C48.3499 68 47 66.6231 47 64.9307C47 63.7578 47.3337 63.2214 47.8362 62.4054C47.9864 62.1618 48.1588 61.886 48.3461 61.5536L49.6904 59.1889C49.7571 59.0737 49.8776 59 50.0111 59C50.1428 59 50.267 59.0718 50.3319 59.1889L51.6761 61.5498C51.8541 61.869 52.0192 62.1334 52.1601 62.3695C52.6848 63.2251 53 63.7389 53 64.9288C53.0037 66.6231 51.6631 67.9981 50.0129 67.9981L50.013 68ZM50.2504 66.9442C49.0489 66.9442 48.0717 65.9469 48.0717 64.7249C48.0717 64.5171 48.2386 64.3471 48.4426 64.3471C48.6465 64.3471 48.8134 64.5171 48.8134 64.7249C48.8134 65.5333 49.4587 66.1887 50.2504 66.1887C50.4543 66.1887 50.6212 66.3587 50.6212 66.5664C50.6212 66.7742 50.4543 66.9442 50.2504 66.9442Z" fill="#0166FF"/>
<path fill-rule="evenodd" clip-rule="evenodd" d="M34.9908 68C33.3424 68 32 66.6231 32 64.9307C32 63.7408 32.3152 63.2252 32.8399 62.3714C32.9845 62.1372 33.1459 61.8709 33.3238 61.5536L34.6681 59.1889C34.7348 59.0737 34.8554 59 34.9889 59C35.1205 59 35.2447 59.0718 35.3096 59.1889L36.6539 61.5498C36.8412 61.886 37.0136 62.1599 37.1638 62.4054C37.67 63.2176 38 63.7559 38 64.9307C38.0037 66.625 36.654 68 34.9908 68ZM35.2281 66.9442C34.0266 66.9442 33.0495 65.9469 33.0495 64.7249C33.0495 64.5171 33.2164 64.3471 33.4203 64.3471C33.6243 64.3471 33.7912 64.5171 33.7912 64.7249C33.7912 65.5333 34.4364 66.1887 35.2281 66.1887C35.4321 66.1887 35.5989 66.3587 35.5989 66.5664C35.5989 66.7742 35.4321 66.9442 35.2281 66.9442Z" fill="#0166FF"/>
<path fill-rule="evenodd" clip-rule="evenodd" d="M42.5022 77C41.5599 77 40.6806 76.6799 40.0183 76.1004C39.3604 75.5246 39 74.7576 39 73.9451C39 72.7235 39.3778 72.2046 39.9988 71.3428C40.1616 71.1155 40.3483 70.8598 40.5503 70.5568L42.1244 68.1894C42.2025 68.0739 42.3437 68 42.5 68C42.6542 68 42.7996 68.072 42.8756 68.1894L44.4497 70.5568C44.6517 70.8598 44.8384 71.1155 45.0012 71.3409C45.6265 72.2026 46 72.7216 46 73.9432C46 74.7576 45.6396 75.5227 44.9817 76.0985C44.3238 76.6818 43.4445 77 42.5022 77ZM42.7801 75.9659C41.3732 75.9659 40.2289 74.9659 40.2289 73.7406C40.2289 73.5322 40.4244 73.3618 40.6632 73.3618C40.902 73.3618 41.0974 73.5322 41.0974 73.7406C41.0974 74.5512 41.853 75.2083 42.7801 75.2083C43.0189 75.2083 43.2143 75.3788 43.2143 75.5871C43.2143 75.7955 43.0189 75.9659 42.7801 75.9659Z" fill="#0166FF"/>
<path fill-rule="evenodd" clip-rule="evenodd" d="M58.5022 76C57.5599 76 56.6806 75.6799 56.0183 75.1004C55.3604 74.5246 55 73.7576 55 72.9451C55 71.7235 55.3778 71.2046 55.9988 70.3428C56.1616 70.1155 56.3483 69.8598 56.5503 69.5568L58.1244 67.1894C58.2025 67.0739 58.3437 67 58.5 67C58.6542 67 58.7996 67.072 58.8756 67.1894L60.4497 69.5568C60.6517 69.8598 60.8384 70.1155 61.0012 70.3409C61.6265 71.2026 62 71.7216 62 72.9432C62 73.7576 61.6396 74.5227 60.9817 75.0985C60.3238 75.6818 59.4445 76 58.5022 76ZM58.7801 74.9659C57.3732 74.9659 56.2289 73.9659 56.2289 72.7406C56.2289 72.5322 56.4244 72.3618 56.6632 72.3618C56.902 72.3618 57.0974 72.5322 57.0974 72.7406C57.0974 73.5512 57.853 74.2083 58.7801 74.2083C59.0189 74.2083 59.2143 74.3788 59.2143 74.5871C59.2143 74.7955 59.0189 74.9659 58.7801 74.9659Z" fill="#0166FF"/>
<path fill-rule="evenodd" clip-rule="evenodd" d="M26.5022 76C25.5599 76 24.6806 75.6799 24.0183 75.1004C23.3604 74.5246 23 73.7576 23 72.9451C23 71.7235 23.3778 71.2046 23.9988 70.3428C24.1616 70.1155 24.3483 69.8598 24.5503 69.5568L26.1244 67.1894C26.2025 67.0739 26.3437 67 26.5 67C26.6542 67 26.7996 67.072 26.8756 67.1894L28.4497 69.5568C28.6517 69.8598 28.8384 70.1155 29.0012 70.3409C29.6265 71.2026 30 71.7216 30 72.9432C30 73.7576 29.6396 74.5227 28.9817 75.0985C28.3238 75.6818 27.4445 76 26.5022 76ZM26.7801 74.9659C25.3732 74.9659 24.2289 73.9659 24.2289 72.7406C24.2289 72.5322 24.4244 72.3618 24.6632 72.3618C24.902 72.3618 25.0974 72.5322 25.0974 72.7406C25.0974 73.5512 25.853 74.2083 26.7801 74.2083C27.0189 74.2083 27.2143 74.3788 27.2143 74.5871C27.2143 74.7955 27.0189 74.9659 26.7801 74.9659Z" fill="#0166FF"/>
</svg>
