<svg width="94" height="107" viewBox="0 0 94 107" fill="none" xmlns="http://www.w3.org/2000/svg">
<g clip-path="url(#clip0_1107_6951)">
<path fill-rule="evenodd" clip-rule="evenodd" d="M63.684 24.3079C63.1762 18.9641 59.7192 14.4017 54.8207 12.3859L56.0941 9.2882C62.141 11.7726 66.3911 17.3976 67.0201 23.9912L63.684 24.3079ZM69.204 67.0496H71.8251C89.9111 67.0496 99.6881 45.8156 88.0671 32.0726C84.2507 27.5609 79.8874 25.5804 74.0871 24.6117C73.4152 17.557 71.1379 12.0957 65.9699 7.4007C53.2709 -4.1263 32.9859 0.521801 26.4899 16.303L26.154 17.1233C19.7595 18.4905 16.2282 22.1077 14.912 28.4903C10.5097 30.0528 7.24399 32.1544 4.51399 36.0215C-4.62271 48.9665 4.62337 67.0485 20.612 67.0485H31.55L37 67.0496L41.5 67.0485L45 67.0496L49 67.0485H53L56 67.0496H69.204Z" fill="#0166FF"/>
<path fill-rule="evenodd" clip-rule="evenodd" d="M68.682 90.5135C64.5231 90.5418 61.1251 87.5871 61.0973 83.9273C61.0781 81.3907 61.9038 80.225 63.1469 78.4518C63.5185 77.9224 63.9451 77.3231 64.4079 76.601L67.7306 71.4641C67.8956 71.2139 68.1958 71.0525 68.5296 71.0502C68.8588 71.048 69.1706 71.2011 69.3348 71.4532L72.7349 76.5361C73.1853 77.2233 73.6023 77.7923 73.9585 78.3005C75.2847 80.1419 76.0812 81.2475 76.1008 83.8209C76.1378 87.4848 72.8082 90.4813 68.6817 90.5094L68.682 90.5135ZM69.2582 88.2261C66.2538 88.2466 63.794 86.1066 63.7739 83.4639C63.7705 83.0146 64.185 82.6441 64.695 82.6406C65.205 82.6372 65.6251 83.0019 65.6285 83.4512C65.6418 85.1995 67.2661 86.6058 69.2458 86.5923C69.7558 86.5888 70.1759 86.9536 70.1793 87.4029C70.1827 87.8522 69.7682 88.2227 69.2582 88.2261Z" fill="#0166FF"/>
<path fill-rule="evenodd" clip-rule="evenodd" d="M26.6264 89.5139C22.5045 89.542 19.1251 86.5871 19.0973 82.9273C19.0778 80.354 19.8575 79.2335 21.1556 77.3783C21.5134 76.8693 21.9124 76.2906 22.3523 75.6014L25.6749 70.4645C25.8399 70.2142 26.1401 70.0529 26.4739 70.0506C26.8031 70.0484 27.1149 70.2015 27.2791 70.4536L30.6793 75.5364C31.1531 76.2603 31.5888 76.8496 31.9683 77.3781C33.2474 79.1258 34.0815 80.2843 34.1008 82.825C34.1379 86.4888 30.7853 89.4855 26.6264 89.5139ZM27.2025 87.2265C24.1981 87.247 21.7383 85.107 21.7183 82.4643C21.7149 82.015 22.1293 81.6445 22.6394 81.641C23.1494 81.6375 23.5695 82.0023 23.5729 82.4516C23.5861 84.1999 25.2104 85.6062 27.1901 85.5927C27.7001 85.5892 28.1202 85.9539 28.1236 86.4033C28.127 86.8526 27.7125 87.223 27.2025 87.2265Z" fill="#0166FF"/>
<path fill-rule="evenodd" clip-rule="evenodd" d="M47.6541 106.514C45.6344 106.527 43.7445 105.848 42.3155 104.604C40.8959 103.369 40.1109 101.715 40.0975 99.9583C40.0775 97.3165 40.8787 96.1888 42.1956 94.3161C42.5409 93.8222 42.9369 93.2665 43.3647 92.6082L46.6998 87.4655C46.8654 87.2145 47.1667 87.0527 47.5018 87.0504C47.8322 87.0482 48.1451 87.2017 48.31 87.4545L51.7227 92.5512C52.1605 93.2036 52.5649 93.7538 52.9176 94.2389C54.272 96.0933 55.081 97.2102 55.101 99.8519C55.1144 101.613 54.3544 103.273 52.9538 104.528C51.5533 105.799 49.6738 106.5 47.6541 106.514ZM48.2328 104.273C45.2173 104.294 42.7484 102.148 42.7283 99.4981C42.7248 99.0475 43.1409 98.6761 43.6528 98.6726C44.1647 98.6691 44.5863 99.0348 44.5897 99.4854C44.603 101.238 46.2333 102.649 48.2204 102.635C48.7323 102.632 49.1539 102.997 49.1573 103.448C49.1608 103.898 48.7447 104.27 48.2328 104.273Z" fill="#0166FF"/>
</g>
<defs>
<clipPath id="clip0_1107_6951">
<rect width="94" height="107" fill="white"/>
</clipPath>
</defs>
</svg>
